<svg xmlns="http://www.w3.org/2000/svg" width="6" height="5" viewBox="0 0 6 5">
  <g id="Group_196" data-name="Group 196" opacity="0.7">
    <path id="Path_491" data-name="Path 491" d="M578.434,12.815c-.029-.028-.152-.135-.254-.234a10.822,10.822,0,0,1-2.012-2.9A2.289,2.289,0,0,1,576,9.094a.967.967,0,0,1,.109-.448.935.935,0,0,1,.452-.4,4.894,4.894,0,0,1,.532-.128A11.993,11.993,0,0,1,579,8a13.838,13.838,0,0,1,1.844.107,4.238,4.238,0,0,1,.664.17.893.893,0,0,1,.5.789v.028a2.452,2.452,0,0,1-.205.66,10.832,10.832,0,0,1-1.983,2.834,2.827,2.827,0,0,1-.276.241A.894.894,0,0,1,579,13,.939.939,0,0,1,578.434,12.815Z" transform="translate(-576 -8)" fill="#030229"/>
  </g>
</svg>
