<svg xmlns="http://www.w3.org/2000/svg" width="30" height="38" viewBox="0 0 30 38">
  <g id="Group_1510" data-name="Group 1510" transform="translate(-37.955 -35)">
    <g id="Group_1509" data-name="Group 1509" transform="translate(0 -4)">
      <g id="Group_1508" data-name="Group 1508" transform="translate(38.455 42.442)">
        <g id="Group_147" data-name="Group 147" transform="translate(0 0)">
          <path id="Path_103" data-name="Path 103" d="M1083.615-297.763a12.514,12.514,0,0,0-12.479,12.479c-.057,7.283,6.433,10.827,11.766,17.448a1.446,1.446,0,0,0,.869,0c1.534-1.9,12.392-9.987,12.323-17.445A12.52,12.52,0,0,0,1083.615-297.763Zm-.013,16.43a4.836,4.836,0,0,1-4.836-4.836A4.836,4.836,0,0,1,1083.6-291a4.836,4.836,0,0,1,4.836,4.836A4.836,4.836,0,0,1,1083.6-281.333Z" transform="translate(-1071.136 297.763)" fill="none"/>
          <path id="Path_104" data-name="Path 104" d="M1083.615-296.668a11.253,11.253,0,0,1,8.025,3.333,11.5,11.5,0,0,1,3.359,8.061c.021,2.311-1.193,5.036-3.608,8.1a59.655,59.655,0,0,1-6.447,6.669c-.663.611-1.2,1.1-1.588,1.5-1.464-1.762-2.973-3.286-4.436-4.764a38.287,38.287,0,0,1-4.806-5.475,10.414,10.414,0,0,1-1.885-6.029,11.471,11.471,0,0,1,3.356-8.06,11.262,11.262,0,0,1,8.029-3.333m0-1.095a12.514,12.514,0,0,0-12.479,12.479c-.057,7.283,6.433,10.827,11.766,17.448a.864.864,0,0,0,.427.066.906.906,0,0,0,.442-.068c1.534-1.9,12.392-9.987,12.323-17.445a12.52,12.52,0,0,0-12.479-12.479Z" transform="translate(-1071.136 297.763)" fill="#d13827" stroke="#d13827" stroke-width="1"/>
          <g id="Group_146" data-name="Group 146" transform="translate(5.137 4.247)">
            <ellipse id="Ellipse_13" data-name="Ellipse 13" cx="2.184" cy="2.518" rx="2.184" ry="2.518" transform="translate(5.194 3.025)" fill="#d13827"/>
            <path id="Path_105" data-name="Path 105" d="M1196.787-193.31a7.343,7.343,0,0,0-7.343,7.343,7.324,7.324,0,0,0,2.525,5.538,7.226,7.226,0,0,1,.464-1.7,5.784,5.784,0,0,1-1.454-3.841,5.807,5.807,0,0,1,5.807-5.807,5.807,5.807,0,0,1,5.807,5.807,5.782,5.782,0,0,1-1.409,3.789,7.207,7.207,0,0,1,.478,1.7,7.323,7.323,0,0,0,2.466-5.487A7.343,7.343,0,0,0,1196.787-193.31Z" transform="translate(-1189.445 193.31)" fill="#d13827"/>
            <path id="Path_106" data-name="Path 106" d="M1227.932-102.039a.8.8,0,0,1-.754.713.8.8,0,0,1-.754-.712,4.587,4.587,0,0,0-3.325,4.582,7.307,7.307,0,0,0,4.046,1.216,7.309,7.309,0,0,0,4.112-1.258A4.58,4.58,0,0,0,1227.932-102.039Zm-.754,5.03c-.425,0-.77-.79-.77-1.765s.345-1.765.77-1.765.77.79.77,1.765S1227.6-97.009,1227.179-97.009Z" transform="translate(-1219.828 110.913)" fill="#d13827"/>
          </g>
        </g>
        <path id="Path_1095" data-name="Path 1095" d="M0,0H16.022" transform="translate(4.528 29.981)" fill="none" stroke="#d13827" stroke-linecap="round" stroke-width="2.5"/>
      </g>
    </g>
  </g>
</svg>
