<svg xmlns="http://www.w3.org/2000/svg" width="105" height="105" viewBox="0 0 105 105">
  <defs>
    <style>
      .cls-1 {
        fill: #e4e4e4;
      }

      .cls-2 {
        fill: #4b4b4b;
      }
    </style>
  </defs>
  <g id="Group_120" data-name="Group 120" transform="translate(-379 -2488)">
    <circle id="Ellipse_30" data-name="Ellipse 30" class="cls-1" cx="52.5" cy="52.5" r="52.5" transform="translate(379 2488)"/>
    <path id="Intersection_2" data-name="Intersection 2" class="cls-2" d="M16181.437,24313.781h-4.771a52.306,52.306,0,0,1-30.652-13.59v-1.383c-.018-1.215-.018-2.344,0-3.418v-.4c0-.02.019-.037.019-.055.165-5.584,1.221-9.441,6.932-13.021,7.549-4.754,16.012-8.867,16.012-8.867l6.73,21.271,3.93-7.9c-6.895-9.641.488-10.117,1.8-10.135h.073c1.312.018,8.7.512,1.8,10.135l3.93,7.9,6.73-21.271s8.445,4.113,16.012,8.867c5.711,3.58,6.767,7.438,6.932,13.021a.064.064,0,0,1,.019.055v.4c.036,1.074.019,2.215.019,3.418v1.416a52.306,52.306,0,0,1-30.621,13.557Zm-19.795-64.949a19.832,19.832,0,1,1,19.831,19.832A19.831,19.831,0,0,1,16161.642,24248.832Zm7.456,0a2.957,2.957,0,1,0,5.913,0,6.464,6.464,0,0,1,6.462-6.455,2.96,2.96,0,1,0,0-5.92A12.391,12.391,0,0,0,16169.1,24248.832Z" transform="translate(-15750 -21721)"/>
  </g>
</svg>
