<svg xmlns="http://www.w3.org/2000/svg" width="23" height="28.326" viewBox="0 0 23 28.326">
  <g id="Group_47400" data-name="Group 47400" transform="translate(-1076.979 -735.779)">
    <g id="Group_47399" data-name="Group 47399" transform="translate(1076.979 735.779)">
      <g id="Group_47398" data-name="Group 47398" transform="translate(0 0)">
        <rect class="mainPath" id="Rectangle_10279" data-name="Rectangle 10279" width="7" height="16" rx="1" transform="translate(8 12.326)" fill="#373636"/>
        <rect class="mainPath" id="Rectangle_10285" data-name="Rectangle 10285" width="7" height="21" rx="1" transform="translate(0 7.326)" fill="#373636"/>
        <rect class="mainPath" id="Rectangle_10284" data-name="Rectangle 10284" width="7" height="12" rx="1" transform="translate(16 16.326)" fill="#373636"/>
        <path class="mainPath" id="Path_74081" data-name="Path 74081" d="M5.147-16.218a3.152,3.152,0,0,0,1.633-.442,3.328,3.328,0,0,0,1.191-1.191,3.152,3.152,0,0,0,.442-1.633,3.152,3.152,0,0,0-.442-1.633A3.328,3.328,0,0,0,6.78-22.308a3.152,3.152,0,0,0-1.633-.442,3.152,3.152,0,0,0-1.633.442,3.328,3.328,0,0,0-1.191,1.191,3.152,3.152,0,0,0-.442,1.633,3.152,3.152,0,0,0,.442,1.633,3.328,3.328,0,0,0,1.191,1.191A3.152,3.152,0,0,0,5.147-16.218Z" transform="translate(5.977 26.669)" fill="#373636"/>
        <path class="mainPath" id="Path_74083" data-name="Path 74083" d="M5.147-16.218a3.152,3.152,0,0,0,1.633-.442,3.328,3.328,0,0,0,1.191-1.191,3.152,3.152,0,0,0,.442-1.633,3.152,3.152,0,0,0-.442-1.633A3.328,3.328,0,0,0,6.78-22.308a3.152,3.152,0,0,0-1.633-.442,3.152,3.152,0,0,0-1.633.442,3.328,3.328,0,0,0-1.191,1.191,3.152,3.152,0,0,0-.442,1.633,3.152,3.152,0,0,0,.442,1.633,3.328,3.328,0,0,0,1.191,1.191A3.152,3.152,0,0,0,5.147-16.218Z" transform="translate(-1.861 22.75)" fill="#373636"/>
        <path class="mainPath" id="Path_74082" data-name="Path 74082" d="M5.147-16.218a3.152,3.152,0,0,0,1.633-.442,3.328,3.328,0,0,0,1.191-1.191,3.152,3.152,0,0,0,.442-1.633,3.152,3.152,0,0,0-.442-1.633A3.328,3.328,0,0,0,6.78-22.308a3.152,3.152,0,0,0-1.633-.442,3.152,3.152,0,0,0-1.633.442,3.328,3.328,0,0,0-1.191,1.191,3.152,3.152,0,0,0-.442,1.633,3.152,3.152,0,0,0,.442,1.633,3.328,3.328,0,0,0,1.191,1.191A3.152,3.152,0,0,0,5.147-16.218Z" transform="translate(13.816 30.588)" fill="#373636"/>
      </g>
    </g>
  </g>
</svg>
