<svg xmlns="http://www.w3.org/2000/svg" width="23.25" height="22.605" viewBox="0 0 23.25 22.605">
  <g id="Group_47397" data-name="Group 47397" transform="translate(-1072.375 -790.198)">
    <g id="Group_47396" data-name="Group 47396" transform="translate(1072.875 790.198)">
      <g id="Group_47395" data-name="Group 47395" transform="translate(0)">
        <g id="Group_47394" data-name="Group 47394" transform="translate(0)">
          <path class="mainPath" id="Path_74077" data-name="Path 74077" d="M21.032,7.979,15.693,2.641A2.208,2.208,0,0,0,14.135,2H6.21a2.208,2.208,0,0,0-2.2,2.211L4,21.895a2.208,2.208,0,0,0,2.2,2.211H19.473a2.217,2.217,0,0,0,2.21-2.211V9.549A2.217,2.217,0,0,0,21.032,7.979Zm-5.979.652a1.108,1.108,0,0,1-1.105-1.105V3.658l4.974,4.974Z" transform="translate(1.066 -2)" fill="#373636"/>
          <path class="mainPath" id="Path_74078" data-name="Path 74078" d="M4.2-7.2v-1.45A9.132,9.132,0,0,1,2.6-8.8a6.2,6.2,0,0,1-1.27-.376v-1.5a7.731,7.731,0,0,0,1.337.457A7.305,7.305,0,0,0,4.2-9.99v-2.639a9.09,9.09,0,0,1-1.657-.718,2.547,2.547,0,0,1-.932-.869,2.29,2.29,0,0,1-.3-1.193,2.1,2.1,0,0,1,.362-1.235,2.48,2.48,0,0,1,1.013-.82A4.211,4.211,0,0,1,4.2-17.823V-18.97h.915v1.126a7.424,7.424,0,0,1,1.446.172,6.948,6.948,0,0,1,1.27.419l-.514,1.309a7.663,7.663,0,0,0-1.1-.345,8.09,8.09,0,0,0-1.1-.183V-13.9a12.545,12.545,0,0,1,1.531.605,2.922,2.922,0,0,1,1.056.813A2.01,2.01,0,0,1,8.088-11.2a2.178,2.178,0,0,1-.76,1.707,3.786,3.786,0,0,1-2.21.806V-7.2Zm.915-2.85A1.967,1.967,0,0,0,6.125-10.4a.871.871,0,0,0,.331-.707.875.875,0,0,0-.137-.5,1.209,1.209,0,0,0-.429-.366,4.447,4.447,0,0,0-.771-.317ZM4.2-14.241v-2.2a2.25,2.25,0,0,0-.69.169.989.989,0,0,0-.422.331.834.834,0,0,0-.141.486,1.034,1.034,0,0,0,.127.528,1.079,1.079,0,0,0,.4.38A3.917,3.917,0,0,0,4.2-14.241Z" transform="translate(9.817 26.879)" fill="#fff"/>
          <path class="mainPath" id="Path_74064" data-name="Path 74064" d="M5.01-17.114A2.72,2.72,0,0,0,6.419-17.5a2.872,2.872,0,0,0,1.027-1.027,2.72,2.72,0,0,0,.382-1.409,2.72,2.72,0,0,0-.382-1.409,2.872,2.872,0,0,0-1.027-1.027A2.72,2.72,0,0,0,5.01-22.75a2.72,2.72,0,0,0-1.409.382,2.872,2.872,0,0,0-1.027,1.027,2.72,2.72,0,0,0-.382,1.409,2.72,2.72,0,0,0,.382,1.409A2.872,2.872,0,0,0,3.6-17.5,2.72,2.72,0,0,0,5.01-17.114Zm2.5.626H6.438a3.4,3.4,0,0,1-1.429.313,3.4,3.4,0,0,1-1.429-.313H2.5a2.484,2.484,0,0,0-1.262.333,2.437,2.437,0,0,0-.91.91A2.484,2.484,0,0,0,0-13.983v.313A.906.906,0,0,0,.274-13a.906.906,0,0,0,.665.274H9.08A.906.906,0,0,0,9.745-13a.906.906,0,0,0,.274-.665v-.313a2.484,2.484,0,0,0-.333-1.262,2.437,2.437,0,0,0-.91-.91A2.484,2.484,0,0,0,7.514-16.488Z" transform="translate(0 34.836)" fill="#373636" stroke="#fff" stroke-width="1"/>
        </g>
      </g>
    </g>
  </g>
</svg>
