<svg xmlns="http://www.w3.org/2000/svg" width="22.75" height="18.2" viewBox="0 0 22.75 18.2">
  <path class="mainPath" id="Path_74105" data-name="Path 74105" d="M4.55-4.988H1.137a1.093,1.093,0,0,0-.8.338A1.093,1.093,0,0,0,0-3.85V-.438a1.093,1.093,0,0,0,.338.8,1.093,1.093,0,0,0,.8.338H4.55a1.093,1.093,0,0,0,.8-.338,1.093,1.093,0,0,0,.338-.8V-3.85a1.093,1.093,0,0,0-.338-.8A1.093,1.093,0,0,0,4.55-4.988ZM3.7-7.831h6.825v1.706h1.706V-7.831h6.825v1.706h1.706V-8.187a1.294,1.294,0,0,0-.409-.942,1.294,1.294,0,0,0-.942-.409h-7.18v-2.275H13.65a1.093,1.093,0,0,0,.8-.338,1.093,1.093,0,0,0,.338-.8v-3.412a1.093,1.093,0,0,0-.338-.8,1.093,1.093,0,0,0-.8-.338H9.1a1.093,1.093,0,0,0-.8.338,1.093,1.093,0,0,0-.338.8v3.412a1.093,1.093,0,0,0,.338.8,1.093,1.093,0,0,0,.8.338h1.422v2.275H3.341a1.294,1.294,0,0,0-.942.409,1.294,1.294,0,0,0-.409.942v2.062H3.7Zm9.384,2.844H9.669a1.093,1.093,0,0,0-.8.338,1.093,1.093,0,0,0-.338.8V-.438a1.093,1.093,0,0,0,.338.8,1.093,1.093,0,0,0,.8.338h3.412a1.093,1.093,0,0,0,.8-.338,1.093,1.093,0,0,0,.338-.8V-3.85a1.093,1.093,0,0,0-.338-.8A1.093,1.093,0,0,0,13.081-4.988Zm8.531,0H18.2a1.093,1.093,0,0,0-.8.338,1.093,1.093,0,0,0-.338.8V-.438a1.093,1.093,0,0,0,.338.8A1.093,1.093,0,0,0,18.2.7h3.412a1.093,1.093,0,0,0,.8-.338,1.093,1.093,0,0,0,.338-.8V-3.85a1.093,1.093,0,0,0-.338-.8A1.093,1.093,0,0,0,21.612-4.988Z" transform="translate(0 17.5)" fill="#373636"/>
</svg>
