<?xml version="1.0"?>
<svg xmlns="http://www.w3.org/2000/svg" xmlns:xlink="http://www.w3.org/1999/xlink" xmlns:svgjs="http://svgjs.com/svgjs" version="1.1" width="512" height="512" x="0" y="0" viewBox="0 0 64 64" style="enable-background:new 0 0 512 512" xml:space="preserve" class=""><g><path xmlns="http://www.w3.org/2000/svg" d="m50 27c-7.168 0-13-5.832-13-13s5.832-13 13-13 13 5.832 13 13-5.832 13-13 13z" fill="#f0bc5e" data-original="#f0bc5e" style="" class=""/><path xmlns="http://www.w3.org/2000/svg" d="m50 13c-1.103 0-2-.897-2-2v-2h2c1.103 0 2 .897 2 2h2c0-1.858-1.279-3.411-3-3.858v-2.142h-2v2h-3v4c0 2.206 1.794 4 4 4 1.103 0 2 .897 2 2v2h-2c-1.103 0-2-.897-2-2h-2c0 1.858 1.279 3.411 3 3.858v2.142h2v-2h3v-4c0-2.206-1.794-4-4-4z" fill="#000000" data-original="#000000" style="" class=""/><path xmlns="http://www.w3.org/2000/svg" d="m57 13h2v2h-2z" fill="#000000" data-original="#000000" style="" class=""/><path xmlns="http://www.w3.org/2000/svg" d="m41 13h2v2h-2z" fill="#000000" data-original="#000000" style="" class=""/><path xmlns="http://www.w3.org/2000/svg" d="m35 29v-25h-1c-14.337 0-26 11.664-26 26 0 5.125 1.494 10.042 4.297 14.289l-7.004 7.004-.379.379c-.209.209-.498.328-.793.328-.618 0-1.121-.503-1.121-1.121 0-.295.119-.584.328-.793l6.379-6.379-1.414-1.414-6.379 6.379c-.581.581-.914 1.385-.914 2.207 0 1.271.766 2.362 1.858 2.849l-.323.323c-.99.99-1.535 2.306-1.535 3.707 0 2.89 2.352 5.242 5.242 5.242 1.4 0 2.717-.545 3.707-1.535l9.762-9.762c4.247 2.803 9.164 4.297 14.289 4.297 14.337 0 26-11.663 26-26v-1zm-5.471 4.057-.925.132-15.31-15.311c.871-1.482 1.9-2.858 3.057-4.115l16.235 16.237zm-8.519 2.539-10.502-10.502c.392-1.878 1.002-3.676 1.806-5.366l13.814 13.815-1.291.184c-1.432.204-2.779.872-3.827 1.869zm.99 1.818 4.586 4.586-12.586 12.586-4.586-4.586zm6.293 1.465c-.075.53-.239 1.045-.477 1.523l-4.218-4.218c.478-.238.993-.402 1.523-.477l3.7-.528zm-10.53-26.53c1.257-1.157 2.635-2.184 4.117-3.054l11.12 11.119v7.172zm15.237 5.237-9.27-9.27c2.832-1.346 5.964-2.159 9.27-2.295zm-23 12.414c0-.83.044-1.651.127-2.46l9.459 9.46-5.844 5.844c-2.442-3.84-3.742-8.251-3.742-12.844zm-1.465 30.051c-.612.612-1.427.949-2.293.949-1.788 0-3.242-1.454-3.242-3.242 0-.866.337-1.681.949-2.293l2.379-2.379.379-.379 1.293-1.293 4.586 4.586zm25.465-6.051c-4.593 0-9.004-1.3-12.844-3.741l7.137-7.137c1.064-1.064 1.768-2.47 1.98-3.959l.67-4.691 3.471-3.472h23.565c-.526 12.771-11.081 23-23.979 23z" fill="#000000" data-original="#000000" style="" class=""/><path xmlns="http://www.w3.org/2000/svg" d="m33.515 41h16.971v2h-16.971z" transform="matrix(.707 -.707 .707 .707 -17.397 42)" fill="#000000" data-original="#000000" style="" class=""/><path xmlns="http://www.w3.org/2000/svg" d="m38 41c1.654 0 3-1.346 3-3s-1.346-3-3-3-3 1.346-3 3 1.346 3 3 3zm0-4c.552 0 1 .448 1 1s-.448 1-1 1-1-.448-1-1 .448-1 1-1z" fill="#000000" data-original="#000000" style="" class=""/><path xmlns="http://www.w3.org/2000/svg" d="m46 43c-1.654 0-3 1.346-3 3s1.346 3 3 3 3-1.346 3-3-1.346-3-3-3zm0 4c-.552 0-1-.448-1-1s.448-1 1-1 1 .448 1 1-.448 1-1 1z" fill="#000000" data-original="#000000" style="" class=""/><path xmlns="http://www.w3.org/2000/svg" d="m28.812 51.385c.676.164 1.368.296 2.058.395l.281-1.98c-.626-.089-1.255-.209-1.868-.357z" fill="#000000" data-original="#000000" style="" class=""/><path xmlns="http://www.w3.org/2000/svg" d="m24.857 50.017c.639.291 1.293.553 1.943.778l.654-1.891c-.592-.204-1.186-.442-1.768-.708z" fill="#000000" data-original="#000000" style="" class=""/><path xmlns="http://www.w3.org/2000/svg" d="m33.048 49.978-.094 1.998c.347.016.695.024 1.046.024s.7-.008 1.047-.024l-.094-1.998c-.631.029-1.274.029-1.905 0z" fill="#000000" data-original="#000000" style="" class=""/></g></svg>
