<svg xmlns="http://www.w3.org/2000/svg" width="24.209" height="24.212" viewBox="0 0 24.209 24.212">
  <path class="mainPath" id="home" d="M23.559,10.53l0,0L13.681.653a2.228,2.228,0,0,0-3.152,0L.657,10.523l-.01.01a2.228,2.228,0,0,0,1.483,3.8q.034,0,.069,0h.394V21.6A2.612,2.612,0,0,0,5.2,24.211H9.066a.709.709,0,0,0,.709-.709V17.8a1.191,1.191,0,0,1,1.19-1.19h2.279a1.191,1.191,0,0,1,1.19,1.19v5.7a.709.709,0,0,0,.709.709h3.864A2.612,2.612,0,0,0,21.616,21.6V14.334h.365a2.229,2.229,0,0,0,1.577-3.8Zm0,0" transform="translate(0 0.001)" fill="#373636"/>
</svg>
