<svg xmlns="http://www.w3.org/2000/svg" width="22.993" height="22.812" viewBox="0 0 22.993 22.812">
  <g id="Group_47423" data-name="Group 47423" transform="translate(-1020.007 -726.338)">
    <g id="Group_47422" data-name="Group 47422">
      <g id="Group_47421" data-name="Group 47421">
        <path id="Path_74106" data-name="Path 74106" d="M22.641,13.824c0-.272-.012-.532-.035-.8l2.2-1.667a1.189,1.189,0,0,0,.307-1.537L22.9,6a1.167,1.167,0,0,0-1.478-.5L18.881,6.576a8.97,8.97,0,0,0-1.383-.8L17.155,3.04A1.186,1.186,0,0,0,15.984,2h-4.41a1.189,1.189,0,0,0-1.182,1.04l-.343,2.731a8.97,8.97,0,0,0-1.383.8L6.123,5.5A1.167,1.167,0,0,0,4.645,6L2.434,9.827a1.192,1.192,0,0,0,.307,1.537l2.2,1.667c-.024.26-.035.52-.035.792s.012.532.035.8l-2.2,1.667a1.189,1.189,0,0,0-.307,1.537l2.211,3.819a1.167,1.167,0,0,0,1.478.5l2.542-1.076a8.97,8.97,0,0,0,1.383.8c.414,3.322,7.023,3.322,7.437,0a8.97,8.97,0,0,0,1.383-.8l2.542,1.076a1.167,1.167,0,0,0,1.478-.5L25.1,17.832a1.192,1.192,0,0,0-.307-1.537l-2.2-1.667A6.113,6.113,0,0,0,22.641,13.824Zm-8.821,4.138a4.138,4.138,0,1,1,4.138-4.138A4.143,4.143,0,0,1,13.821,17.962Z" transform="translate(1017.73 724.338)" fill="#373636"/>
        <path id="Path_74107" data-name="Path 74107" d="M6.97-14.909a3.784,3.784,0,0,0,1.96-.531,4,4,0,0,0,1.429-1.429,3.784,3.784,0,0,0,.531-1.96,3.784,3.784,0,0,0-.531-1.96A4,4,0,0,0,8.93-22.219a3.784,3.784,0,0,0-1.96-.531,3.784,3.784,0,0,0-1.96.531A4,4,0,0,0,3.58-20.79a3.784,3.784,0,0,0-.531,1.96,3.784,3.784,0,0,0,.531,1.96A4,4,0,0,0,5.01-15.44,3.784,3.784,0,0,0,6.97-14.909Zm3.485.871h-1.5A4.728,4.728,0,0,1,6.97-13.6a4.728,4.728,0,0,1-1.988-.436h-1.5a3.456,3.456,0,0,0-1.756.463A3.39,3.39,0,0,0,.463-12.309,3.456,3.456,0,0,0,0-10.553v.436a1.26,1.26,0,0,0,.381.926,1.26,1.26,0,0,0,.926.381H12.633a1.26,1.26,0,0,0,.926-.381,1.26,1.26,0,0,0,.381-.926v-.436a3.456,3.456,0,0,0-.463-1.756,3.39,3.39,0,0,0-1.266-1.266A3.456,3.456,0,0,0,10.455-14.038Z" transform="translate(1024.409 757.46)" fill="#373636" stroke="#fff" stroke-width="1"/>
      </g>
    </g>
  </g>
</svg>
