<svg xmlns="http://www.w3.org/2000/svg" width="22.993" height="22.368" viewBox="0 0 22.993 22.368">
  <path id="Path_74106" data-name="Path 74106" d="M22.641,13.824c0-.272-.012-.532-.035-.8l2.2-1.667a1.189,1.189,0,0,0,.307-1.537L22.9,6a1.167,1.167,0,0,0-1.478-.5L18.881,6.576a8.97,8.97,0,0,0-1.383-.8L17.155,3.04A1.186,1.186,0,0,0,15.984,2h-4.41a1.189,1.189,0,0,0-1.182,1.04l-.343,2.731a8.97,8.97,0,0,0-1.383.8L6.123,5.5A1.167,1.167,0,0,0,4.645,6L2.434,9.827a1.192,1.192,0,0,0,.307,1.537l2.2,1.667c-.024.26-.035.52-.035.792s.012.532.035.8l-2.2,1.667a1.189,1.189,0,0,0-.307,1.537l2.211,3.819a1.167,1.167,0,0,0,1.478.5l2.542-1.076a8.97,8.97,0,0,0,1.383.8c.414,3.322,7.023,3.322,7.437,0a8.97,8.97,0,0,0,1.383-.8l2.542,1.076a1.167,1.167,0,0,0,1.478-.5L25.1,17.832a1.192,1.192,0,0,0-.307-1.537l-2.2-1.667A6.113,6.113,0,0,0,22.641,13.824Zm-8.821,4.138a4.138,4.138,0,1,1,4.138-4.138A4.143,4.143,0,0,1,13.821,17.962Z" transform="translate(-2.277 -2)" fill="#373636"/>
</svg>
