<svg xmlns="http://www.w3.org/2000/svg" width="22.75" height="22.576" viewBox="0 0 22.75 22.576">
  <g id="Group_47423" data-name="Group 47423" transform="translate(-1020.007 -726.338)">
    <g id="Group_47422" data-name="Group 47422" transform="translate(1020.007 726.338)">
      <g id="Group_47421" data-name="Group 47421" transform="translate(0 0)">
        <path class="mainPath" id="Path_74106" data-name="Path 74106" d="M22.426,13.7c0-.269-.012-.526-.035-.8l2.176-1.65a1.177,1.177,0,0,0,.3-1.521L22.683,5.954a1.154,1.154,0,0,0-1.462-.491L18.706,6.527a8.875,8.875,0,0,0-1.369-.8L17,3.029A1.173,1.173,0,0,0,15.839,2H11.476a1.176,1.176,0,0,0-1.17,1.029l-.339,2.7a8.875,8.875,0,0,0-1.369.8L6.083,5.463a1.154,1.154,0,0,0-1.462.491L2.433,9.745a1.179,1.179,0,0,0,.3,1.521l2.176,1.65c-.023.257-.035.515-.035.784s.012.526.035.8l-2.176,1.65a1.177,1.177,0,0,0-.3,1.521L4.62,21.443a1.154,1.154,0,0,0,1.462.491L8.6,20.87a8.875,8.875,0,0,0,1.369.8c.409,3.287,6.949,3.287,7.358,0a8.875,8.875,0,0,0,1.369-.8l2.515,1.065a1.154,1.154,0,0,0,1.462-.491l2.188-3.779a1.179,1.179,0,0,0-.3-1.521l-2.176-1.65A6.049,6.049,0,0,0,22.426,13.7ZM13.7,17.793A4.095,4.095,0,1,1,17.793,13.7,4.1,4.1,0,0,1,13.7,17.793Z" transform="translate(-2.277 -2)" fill="#373636"/>
        <path class="mainPath" id="Path_74107" data-name="Path 74107" d="M6.9-14.992a3.744,3.744,0,0,0,1.94-.525,3.953,3.953,0,0,0,1.414-1.414,3.744,3.744,0,0,0,.525-1.94,3.744,3.744,0,0,0-.525-1.94,3.953,3.953,0,0,0-1.414-1.414A3.744,3.744,0,0,0,6.9-22.75a3.744,3.744,0,0,0-1.94.525A3.953,3.953,0,0,0,3.542-20.81a3.744,3.744,0,0,0-.525,1.94,3.744,3.744,0,0,0,.525,1.94,3.953,3.953,0,0,0,1.414,1.414A3.744,3.744,0,0,0,6.9-14.992Zm3.448.862H8.863A4.678,4.678,0,0,1,6.9-13.7,4.678,4.678,0,0,1,4.93-14.13H3.448a3.419,3.419,0,0,0-1.738.458A3.354,3.354,0,0,0,.458-12.419,3.419,3.419,0,0,0,0-10.682v.431a1.247,1.247,0,0,0,.377.916,1.247,1.247,0,0,0,.916.377H12.5a1.247,1.247,0,0,0,.916-.377,1.247,1.247,0,0,0,.377-.916v-.431a3.419,3.419,0,0,0-.458-1.738,3.354,3.354,0,0,0-1.253-1.253A3.419,3.419,0,0,0,10.344-14.13Z" transform="translate(4.356 31.034)" fill="#373636" stroke="#fff" stroke-width="1"/>
      </g>
    </g>
  </g>
</svg>
