<svg xmlns="http://www.w3.org/2000/svg" width="18.058" height="18.058" viewBox="0 0 18.058 18.058">
  <g id="Icon_ionic-ios-add-circle-outline" data-name="Icon ionic-ios-add-circle-outline" transform="translate(-3.375 -3.375)">
    <path id="Path_16" data-name="Path 16" d="M19.063,14.44H15.829V11.206a.695.695,0,0,0-1.389,0V14.44H11.206a.665.665,0,0,0-.695.695.672.672,0,0,0,.695.695H14.44v3.234a.673.673,0,0,0,.695.695.691.691,0,0,0,.695-.695V15.829h3.234a.695.695,0,1,0,0-1.389Z" transform="translate(-2.731 -2.731)" fill="#484848"/>
    <path id="Path_17" data-name="Path 17" d="M12.4,4.59A7.811,7.811,0,1,1,6.878,6.878,7.762,7.762,0,0,1,12.4,4.59m0-1.215A9.029,9.029,0,1,0,21.433,12.4,9.028,9.028,0,0,0,12.4,3.375Z" fill="#484848"/>
  </g>
</svg>
