<svg id="Capa_1" enable-background="new 0 0 479.994 479.994" height="512" viewBox="0 0 479.994 479.994" width="512" xmlns="http://www.w3.org/2000/svg"><path d="m144 367.994v-48c-.031-23.598-17.186-43.684-40.488-47.408 13.607-17.404 10.529-42.542-6.875-56.149s-42.542-10.529-56.149 6.875c-11.317 14.475-11.317 34.799 0 49.274-23.302 3.723-40.457 23.81-40.488 47.408v48c.015 13.248 10.752 23.985 24 24h8v80c0 4.418 3.582 8 8 8h64c4.418 0 8-3.582 8-8v-80h8c13.248-.016 23.985-10.752 24-24zm-72-144c13.255 0 24 10.745 24 24s-10.745 24-24 24-24-10.745-24-24c.015-13.249 10.752-23.985 24-24zm56 144c-.005 4.416-3.584 7.995-8 8h-8v-40h-16v128h-16v-56h-16v56h-16v-128h-16v40h-8c-4.416-.005-7.995-3.584-8-8v-48c.02-17.665 14.335-31.98 32-32h16v32h16v-32h16c17.665.02 31.98 14.335 32 32z"/><path d="m240 367.994v-48c-.031-23.598-17.186-43.684-40.488-47.408 13.567-17.418 10.445-42.537-6.973-56.104s-42.537-10.445-56.104 6.973-10.445 42.537 6.973 56.104c4.868 3.791 10.547 6.405 16.592 7.635v32.8h16v-32h16c17.665.02 31.98 14.335 32 32v48c-.005 4.416-3.584 7.995-8 8h-8v-40h-16v128h-16v-56h-16v56h-16v-56h-16v64c0 4.418 3.582 8 8 8h64c4.418 0 8-3.582 8-8v-80h8c13.248-.016 23.985-10.752 24-24zm-96-120c0-13.255 10.745-24 24-24s24 10.745 24 24-10.745 24-24 24c-13.248-.016-23.985-10.752-24-24z"/><path d="m409.705 70.294c-93.726-93.725-245.686-93.725-339.411.001-45.007 45.007-70.292 106.049-70.294 169.699 0 8.289.424 16.572 1.269 24.818l15.916-1.636c-.79-7.702-1.185-15.44-1.185-23.182-.073-35.642 8.399-70.782 24.707-102.474l17.272 19.742c.277.316.578.609.9.878l48 40c.595.496 1.258.903 1.97 1.208l24 10.286 6.3-14.707-22.926-9.827-46.62-38.848-20.556-23.5c9.216-14.936 20.144-28.746 32.561-41.15 4.42-4.419 8.991-8.625 13.712-12.618l9.034 29.363c.796 2.587 2.846 4.595 5.448 5.339l51.138 14.608 7.168 43.012c.338 2.031 1.445 3.853 3.092 5.088l31.143 23.357 55.343 71.154c2.34 3.012 6.482 3.952 9.892 2.244l32-16c2.455-1.228 4.109-3.628 4.382-6.359l7.8-78.017 29.056-43.585 36.751-7.349c1.172-.234 2.277-.728 3.233-1.445l26.217-19.663c23.128 25.729 39.927 56.503 49.061 89.871l-20.838 20.837c-12.452-28.305-45.491-41.156-73.796-28.704-20.327 8.942-33.448 29.052-33.444 51.259 0 11.107 3.187 21.549 7.973 30.974l-15.322 53.626-47.307 70.96c-1.484 2.226-1.758 5.046-.729 7.515l28.545 68.505c-19.903 5.603-40.483 8.436-61.16 8.42-5.15 0-10.35-.177-15.456-.524l-1.088 15.962c5.467.374 11.032.562 16.544.562 132.548-.003 239.997-107.458 239.994-240.006-.002-63.648-25.285-124.688-70.289-169.694zm-37.054 26.217-38.22 7.643c-2.08.416-3.91 1.642-5.087 3.407l-32 48c-.725 1.089-1.172 2.34-1.3 3.642l-7.561 75.612-22.191 11.1-51.974-66.822c-.436-.566-.947-1.07-1.518-1.499l-29.436-22.077-7.472-44.838c-.508-3.047-2.724-5.529-5.694-6.377l-51.828-14.808-9.57-31.1c88.055-63.579 209.029-54.846 287.041 20.719zm11.349 87.483c22.081.025 39.975 17.919 40 40 0 28.448-28.764 53.419-40.01 62.093-6.484-4.996-12.541-10.521-18.111-16.519-9.979-10.813-21.879-27.497-21.879-45.574.025-22.081 17.919-39.975 40-40zm14.392 214.392c-23.144 23.232-51.123 41.081-81.946 52.276l-27.415-65.793 45.625-68.437c.459-.689.809-1.444 1.036-2.24l11.839-41.434c9.211 11.427 19.995 21.492 32.031 29.892 2.687 1.792 6.189 1.792 8.876 0 2.105-1.403 51.562-34.878 51.562-78.656 0-1.513-.078-3.007-.2-4.49l20.467-20.466c2.484 13.511 3.733 27.219 3.733 40.956.162 59.44-23.462 116.476-65.608 158.392z"/><path d="m384 247.994c13.255 0 24-10.745 24-24s-10.745-24-24-24-24 10.745-24 24c.015 13.248 10.752 23.984 24 24zm0-32c4.418 0 8 3.582 8 8s-3.582 8-8 8-8-3.582-8-8c.005-4.416 3.584-7.995 8-8z"/><path d="m248 63.994c-13.255 0-24 10.745-24 24s10.745 24 24 24 24-10.745 24-24c-.015-13.249-10.752-23.985-24-24zm0 32c-4.418 0-8-3.582-8-8s3.582-8 8-8 8 3.582 8 8c-.005 4.416-3.584 7.995-8 8z"/><path d="m248 31.994c-30.914.035-55.965 25.086-56 56 0 43.778 49.457 77.253 51.562 78.656 2.687 1.792 6.189 1.792 8.876 0 2.105-1.403 51.562-34.878 51.562-78.656-.035-30.914-25.086-55.966-56-56zm-.01 118.093c-6.484-4.996-12.541-10.521-18.111-16.519-9.979-10.813-21.879-27.497-21.879-45.574 0-22.091 17.909-40 40-40s40 17.909 40 40c0 28.448-28.764 53.419-40.01 62.093z"/><path d="m312 375.994h16v16h-16z"/><path d="m384 335.994h16v16h-16z"/><path d="m256 191.994h16v16h-16z"/><path d="m40 183.994h16v16h-16z"/><path d="m136 55.994h16v16h-16z"/><path d="m336 63.994h16v16h-16z"/></svg>