<svg id="Group_495" data-name="Group 495" xmlns="http://www.w3.org/2000/svg" xmlns:xlink="http://www.w3.org/1999/xlink" width="32.822" height="33.819" viewBox="0 0 32.822 33.819">
  <defs>
    <clipPath id="clip-path-loan-management">
      <rect id="Rectangle_1091" data-name="Rectangle 1091" width="32.822" height="33.82" fill="none"/>
    </clipPath>
  </defs>
  <g id="Group_494" data-name="Group 494" clip-path="url(#clip-path-loan-management)">
    <path id="Path_639" data-name="Path 639" d="M59.367,249.467c0-3.214-.019-6.428,0-9.641a3.162,3.162,0,0,1,2.342-2.909,9.106,9.106,0,0,1,6.917.632,13.872,13.872,0,0,0,2.088.892,6.565,6.565,0,0,0,1.712.284c.978.045,1.959.008,2.939.014a1,1,0,0,1,1.114,1.156,2.553,2.553,0,0,1-2.038,2.671,3.511,3.511,0,0,1-.69.046c-1.882,0-3.765-.009-5.647.014a1.559,1.559,0,0,0-.816.267A.843.843,0,0,0,67,243.9a.927.927,0,0,0,.846.681c.273.025.55.013.825.013,1.673,0,3.347-.013,5.02.006a2.875,2.875,0,0,0,2.185-.9c1.361-1.378,2.725-2.754,4.112-4.107a4.749,4.749,0,0,1,6.523-.072,1.014,1.014,0,0,1,.04,1.632q-3.489,3.492-6.981,6.982a4.348,4.348,0,0,1-2.477,1.277.8.8,0,0,0-.151.055Z" transform="translate(-54.12 -215.647)"/>
    <path id="Path_640" data-name="Path 640" d="M.754,282.574A1.206,1.206,0,0,1,0,281.294c.022-2.419.009-4.837.01-7.256,0-.849.356-1.208,1.2-1.211.669,0,1.337,0,2.058,0v9.747Z" transform="translate(0 -248.754)"/>
    <path id="Path_641" data-name="Path 641" d="M120.487,10.367A10.295,10.295,0,1,1,110.185,0a10.351,10.351,0,0,1,10.3,10.367m-11.413,5.5c0-.025,0,.04,0,.105a.993.993,0,1,0,1.973-.014.4.4,0,0,1,.314-.442,3.414,3.414,0,0,0,2.015-4.077,3.18,3.18,0,0,0-2.088-2.084c-.665-.253-1.314-.555-1.951-.873a.79.79,0,0,1-.355-.471.943.943,0,0,1,.64-1.063,1.8,1.8,0,0,1,1.576.225.987.987,0,1,0,1.073-1.652,4.2,4.2,0,0,0-.885-.43.406.406,0,0,1-.343-.451.959.959,0,0,0-1.01-.955.947.947,0,0,0-.948.977c.007.3-.109.4-.361.515a2.845,2.845,0,0,0-1.732,2.568,2.5,2.5,0,0,0,1.348,2.46,6.386,6.386,0,0,0,.667.36c.6.254,1.2.484,1.8.734a1.073,1.073,0,0,1,.718,1.14,1.438,1.438,0,0,1-1.126,1.305,2.738,2.738,0,0,1-2.113-.394.977.977,0,0,0-1.412.285.963.963,0,0,0,.382,1.387c.562.307,1.163.544,1.82.845" transform="translate(-91.084 0)"/>
  </g>
</svg>
