<?xml version="1.0" encoding="UTF-8"?><svg id="Layer_2" xmlns="http://www.w3.org/2000/svg" viewBox="0 0 18.06 18.67"><g id="Group_37"><g id="Group_36"><path id="Path_7" d="m4.18,18.67c-.21-.08-.4-.2-.55-.37-1.09-1.09-2.18-2.18-3.27-3.27-.41-.32-.48-.92-.16-1.33.05-.06.1-.11.16-.16.3-.3.6-.6.9-.9.27-.31.7-.41,1.08-.25.13.05.19-.02.27-.09.68-.56,1.36-1.12,2.03-1.69.77-.63,1.77-.92,2.76-.79.48.05.95.16,1.4.33.27.09.56.13.84.13h2.19c.49-.02.96.18,1.28.54.1.11.16.1.26,0,.66-.61,1.34-1.22,2-1.83.64-.61,1.62-.66,2.32-.12.41.29.5.86.21,1.27-.03.04-.06.07-.09.11-.25.26-.5.51-.76.76-.89.89-1.79,1.76-2.66,2.67-.52.54-1.19.92-1.92,1.09-.75.19-1.52.3-2.3.34-.7.04-1.4.04-2.09,0-.72-.04-1.42.26-1.89.82-.07.07-.06.12,0,.2.32.39.27.96-.11,1.28-.3.3-.6.59-.89.89-.15.17-.34.29-.55.37h-.44Zm5.8-6.39h2.51c.34,0,.47-.17.41-.5-.08-.51-.52-.88-1.04-.87-.7,0-1.41,0-2.11,0-.44.01-.87-.06-1.29-.2-.58-.22-1.2-.31-1.82-.26-.56.02-1.1.23-1.54.58-.68.57-1.36,1.14-2.05,1.7-.13.1-.11.16,0,.26.76.76,1.52,1.52,2.28,2.28q.3.3.61.02c.55-.54,1.3-.83,2.07-.8,1.4.1,2.81,0,4.18-.28.54-.09,1.05-.33,1.46-.69,1.22-1.21,2.43-2.43,3.65-3.65.2-.2.18-.38-.05-.54-.44-.3-1.04-.26-1.43.1-.74.66-1.48,1.34-2.21,2.01-.07.05-.1.14-.08.22.03.13.04.27.03.4-.06.53-.54.91-1.07.85h-4.92c-.08,0-.16,0-.23-.02-.14-.03-.24-.16-.23-.31,0-.15.12-.28.27-.29.06,0,.12,0,.18,0h2.44m-4.24,4.43c0-.11-.05-.2-.13-.27-1.12-1.12-2.25-2.25-3.37-3.37-.11-.14-.32-.17-.47-.06-.02.02-.04.04-.06.06-.32.32-.64.63-.95.95-.15.1-.18.31-.08.45.02.03.05.06.08.08,1.12,1.13,2.25,2.25,3.37,3.37.12.15.34.17.48.05.02-.01.03-.03.05-.05.32-.32.64-.64.97-.96.07-.06.12-.16.11-.26"/><path id="Path_8" d="m12.94,8.41c-.17,0-.33-.04-.47-.12-.24-.13-.49-.25-.72-.38-.15-.1-.35-.1-.5,0-.23.13-.47.25-.71.37-.34.2-.78.18-1.1-.06-.34-.22-.51-.64-.42-1.03.05-.27.08-.54.14-.81.04-.17-.01-.35-.14-.46-.2-.19-.4-.39-.6-.59-.41-.39-.43-1.04-.04-1.45.16-.17.37-.28.6-.31.28-.04.56-.09.85-.13.17-.02.32-.13.39-.29.12-.24.23-.48.35-.72.16-.37.54-.61.94-.6.41-.01.78.23.94.61.12.24.24.49.36.73.06.15.2.25.36.27.29.04.59.09.88.13.56.09.94.62.85,1.18-.03.2-.13.39-.27.54-.2.21-.41.41-.63.61-.13.11-.19.29-.15.46.05.27.09.55.14.83.1.56-.27,1.1-.83,1.2-.07.01-.14.02-.22.02m-1.46-1.2c.18,0,.36.04.51.12.24.12.47.25.71.38.15.11.35.11.5,0,.14-.1.2-.29.15-.45-.04-.25-.08-.5-.13-.75-.09-.38.04-.78.33-1.04.2-.19.39-.38.59-.57.13-.11.17-.29.11-.45-.05-.15-.19-.25-.34-.26-.18-.03-.36-.06-.54-.08-.5.02-.96-.27-1.17-.73-.1-.22-.21-.44-.32-.66-.06-.16-.22-.27-.4-.26-.17,0-.32.1-.38.26-.13.26-.26.52-.39.78-.13.28-.39.48-.7.53-.29.06-.59.1-.88.14-.23,0-.42.18-.43.41,0,.14.06.27.17.35.2.19.41.38.6.58.24.23.35.56.29.88-.04.29-.1.57-.14.86-.05.17.01.35.15.46.14.1.33.11.48.01.25-.13.49-.26.74-.39.15-.08.31-.12.48-.12"/><path id="Path_9" d="m11.8.52c0,.08,0,.16,0,.24-.01.15-.14.27-.29.27-.15.01-.29-.1-.31-.25-.03-.17-.03-.35,0-.52.02-.16.16-.27.32-.25,0,0,0,0,0,0,.15,0,.27.13.28.28,0,.08,0,.16,0,.24h0"/><path id="Path_10" d="m9.1.64c.26,0,.6.58.48.81-.07.15-.25.21-.4.14-.05-.02-.08-.05-.11-.09-.1-.14-.18-.29-.25-.44-.06-.15,0-.33.16-.39.04-.02.08-.02.13-.02"/><path id="Path_11" d="m16.1,5.45c-.09-.01-.18-.01-.27-.03-.15-.03-.26-.16-.25-.32,0-.15.11-.27.26-.28.17-.02.34-.02.51,0,.15.01.26.13.26.28,0,.15-.1.29-.25.31-.09.02-.18.02-.27.03"/><path id="Path_12" d="m13.7,1.62c-.17,0-.31-.13-.31-.3,0-.04,0-.08.02-.11.06-.16.15-.32.26-.45.11-.13.3-.14.43-.03.1.09.14.23.08.36-.07.15-.16.29-.25.42-.05.08-.14.13-.23.12"/><path id="Path_13" d="m6.88,5.45c-.09,0-.18-.02-.27-.04-.17,0-.29-.15-.28-.32,0-.17.15-.29.32-.28h0c.16-.01.33-.01.49,0,.15,0,.26.13.26.27.02.15-.08.29-.23.32-.1.02-.19.03-.29.03"/><path id="Path_14" d="m8,2.93c0,.17-.14.3-.31.29-.04,0-.07,0-.11-.02-.16-.07-.3-.15-.44-.25-.14-.09-.17-.28-.08-.42.07-.11.21-.15.33-.12.19.06.37.17.52.3.06.06.09.14.08.22"/><path id="Path_15" d="m15.62,2.4c.13,0,.26.07.32.19.06.11.03.24-.05.32-.15.14-.33.24-.53.31-.16.04-.32-.06-.36-.23-.02-.07,0-.14.03-.21.16-.18.36-.31.59-.38"/></g></g></svg>