<svg xmlns="http://www.w3.org/2000/svg" width="18.438" height="18.438" viewBox="0 0 18.438 18.438">
  <path id="Icon_awesome-history" data-name="Icon awesome-history" d="M19,9.764A9.219,9.219,0,0,1,4,16.959a.892.892,0,0,1-.068-1.324l.419-.419a.894.894,0,0,1,1.185-.074A6.84,6.84,0,1,0,5.1,4.8L6.982,6.684A.6.6,0,0,1,6.561,7.7h-5.4A.6.6,0,0,1,.563,7.1V1.7A.6.6,0,0,1,1.578,1.28L3.413,3.116A9.219,9.219,0,0,1,19,9.764Zm-6.725,2.929.365-.469a.892.892,0,0,0-.156-1.252L10.971,9.794V5.915a.892.892,0,0,0-.892-.892H9.484a.892.892,0,0,0-.892.892v5.042l2.431,1.891a.892.892,0,0,0,1.252-.156Z" transform="translate(-0.563 -0.563)" fill="#666"/>
</svg>
