<svg xmlns="http://www.w3.org/2000/svg" width="22.75" height="28.223" viewBox="0 0 22.75 28.223">
  <g id="Group_47414" data-name="Group 47414" transform="translate(-1024.479 -778.483)">
    <g id="Group_47413" data-name="Group 47413" transform="translate(1024.479 778.483)">
      <g id="Group_47412" data-name="Group 47412" transform="translate(0 0)">
        <path class="mainPath" id="Path_74103" data-name="Path 74103" d="M4.834-4.624V-6.39a11.128,11.128,0,0,1-1.959-.193,7.558,7.558,0,0,1-1.548-.459V-8.868a9.42,9.42,0,0,0,1.629.557,8.9,8.9,0,0,0,1.878.283v-3.216a11.076,11.076,0,0,1-2.019-.875,3.1,3.1,0,0,1-1.136-1.059,2.79,2.79,0,0,1-.36-1.453,2.556,2.556,0,0,1,.442-1.5,3.021,3.021,0,0,1,1.235-1,5.132,5.132,0,0,1,1.839-.437v-1.4H5.949V-17.6a9.047,9.047,0,0,1,1.762.21,8.467,8.467,0,0,1,1.548.51l-.626,1.595A9.338,9.338,0,0,0,7.3-15.7a9.858,9.858,0,0,0-1.346-.223v3.138a15.286,15.286,0,0,1,1.865.737,3.561,3.561,0,0,1,1.286.99A2.449,2.449,0,0,1,9.567-9.5a2.654,2.654,0,0,1-.926,2.079,4.613,4.613,0,0,1-2.693.982v1.818ZM5.949-8.1A2.4,2.4,0,0,0,7.175-8.53a1.061,1.061,0,0,0,.4-.862A1.066,1.066,0,0,0,7.411-10a1.473,1.473,0,0,0-.523-.446,5.419,5.419,0,0,0-.939-.386ZM4.834-13.207v-2.684a2.742,2.742,0,0,0-.84.206,1.2,1.2,0,0,0-.514.4,1.016,1.016,0,0,0-.171.592,1.26,1.26,0,0,0,.154.643,1.315,1.315,0,0,0,.493.463A4.773,4.773,0,0,0,4.834-13.207Z" transform="translate(13.183 32.847)" fill="#373636"/>
        <path class="mainPath" id="Path_74102" data-name="Path 74102" d="M14.375,27.278H5.528A2.527,2.527,0,0,1,3,24.75L3.013,7.056A2.516,2.516,0,0,1,5.528,4.528H6.792V2H9.319V4.528H19.431V2h2.528V4.528h1.264A2.535,2.535,0,0,1,25.75,7.056v7.583H23.222V12.111H5.528V24.75h8.847Z" transform="translate(-3 -2)" fill="#373636"/>
      </g>
    </g>
  </g>
</svg>
