<svg xmlns="http://www.w3.org/2000/svg" width="18.377" height="22.798" viewBox="0 0 18.377 22.798">
  <g id="Group_47414" data-name="Group 47414" transform="translate(-1024.479 -778.483)">
    <g id="Group_47413" data-name="Group 47413">
      <g id="Group_47412" data-name="Group 47412">
        <path id="Path_74103" data-name="Path 74103" d="M4.158-7.381V-8.808a8.989,8.989,0,0,1-1.583-.156,6.105,6.105,0,0,1-1.25-.371V-10.81a7.61,7.61,0,0,0,1.316.45,7.191,7.191,0,0,0,1.517.229v-2.6a8.947,8.947,0,0,1-1.631-.707,2.507,2.507,0,0,1-.918-.855,2.254,2.254,0,0,1-.291-1.174,2.064,2.064,0,0,1,.357-1.216,2.441,2.441,0,0,1,1-.807,4.145,4.145,0,0,1,1.486-.353V-18.97h.9v1.108a7.308,7.308,0,0,1,1.423.17,6.84,6.84,0,0,1,1.25.412l-.506,1.288a7.543,7.543,0,0,0-1.081-.339,7.963,7.963,0,0,0-1.087-.18v2.535a12.348,12.348,0,0,1,1.507.6,2.876,2.876,0,0,1,1.039.8,1.979,1.979,0,0,1,.378,1.257,2.144,2.144,0,0,1-.748,1.68,3.726,3.726,0,0,1-2.175.793v1.468Zm.9-2.805a1.936,1.936,0,0,0,.991-.35.857.857,0,0,0,.326-.7.861.861,0,0,0-.135-.492,1.19,1.19,0,0,0-.423-.36,4.378,4.378,0,0,0-.758-.312Zm-.9-4.128v-2.168a2.215,2.215,0,0,0-.679.166.973.973,0,0,0-.416.326.821.821,0,0,0-.139.478,1.018,1.018,0,0,0,.125.519,1.062,1.062,0,0,0,.4.374A3.855,3.855,0,0,0,4.158-14.315Z" transform="translate(1034.875 808.663)" fill="#373636"/>
        <path id="Path_74102" data-name="Path 74102" d="M12.188,22.419H5.042A2.041,2.041,0,0,1,3,20.377L3.01,6.084A2.033,2.033,0,0,1,5.042,4.042H6.063V2H8.1V4.042h8.168V2h2.042V4.042h1.021a2.048,2.048,0,0,1,2.042,2.042v6.126H19.335V10.168H5.042V20.377h7.147Z" transform="translate(1021.479 776.483)" fill="#373636"/>
      </g>
    </g>
  </g>
</svg>
