<svg xmlns="http://www.w3.org/2000/svg" width="16.521" height="17.643" viewBox="0 0 16.521 17.643">
  <g id="Group_47447" data-name="Group 47447" transform="translate(-1074.685 -836.857)">
    <g id="Group_47446" data-name="Group 47446">
      <g id="Group_47444" data-name="Group 47444" transform="translate(98 20.857)">
        <g id="Group_47443" data-name="Group 47443">
          <g id="Group_47437" data-name="Group 47437" transform="translate(976.685 816)">
            <g id="Group_47425" data-name="Group 47425" transform="translate(0 0)">
              <g id="Group_47424" data-name="Group 47424" transform="translate(0)">
                <g id="Group_47415" data-name="Group 47415">
                  <rect class="mainPath" id="Rectangle_10297" data-name="Rectangle 10297" width="13" height="17" rx="2" fill="#373636"/>
                  <path  id="Path_74104" data-name="Path 74104" d="M3.136-11.554v-.913a5.753,5.753,0,0,1-1.013-.1,3.907,3.907,0,0,1-.8-.237v-.944a4.87,4.87,0,0,0,.842.288,4.6,4.6,0,0,0,.971.146v-1.662a5.726,5.726,0,0,1-1.044-.452,1.6,1.6,0,0,1-.587-.547,1.442,1.442,0,0,1-.186-.751,1.321,1.321,0,0,1,.228-.778,1.562,1.562,0,0,1,.638-.516,2.653,2.653,0,0,1,.951-.226v-.723h.576v.709a4.677,4.677,0,0,1,.911.109,4.377,4.377,0,0,1,.8.264l-.324.824a4.827,4.827,0,0,0-.691-.217,5.1,5.1,0,0,0-.7-.115v1.622a7.9,7.9,0,0,1,.964.381,1.841,1.841,0,0,1,.665.512,1.266,1.266,0,0,1,.242.8A1.372,1.372,0,0,1,5.1-13a2.385,2.385,0,0,1-1.392.508v.94Zm.576-1.8a1.239,1.239,0,0,0,.634-.224.548.548,0,0,0,.208-.445.551.551,0,0,0-.086-.315.762.762,0,0,0-.27-.23,2.8,2.8,0,0,0-.485-.2Zm-.576-2.642v-1.387a1.417,1.417,0,0,0-.434.106.623.623,0,0,0-.266.208.525.525,0,0,0-.089.306.652.652,0,0,0,.08.332.68.68,0,0,0,.255.239A2.467,2.467,0,0,0,3.136-15.991Z" transform="translate(1.081 21.044)" fill="#fff"/>
                </g>
              </g>
            </g>
          </g>
          <g id="Group_47426" data-name="Group 47426" transform="translate(982.721 823.158)">
            <g id="Group_47425-2" data-name="Group 47425" transform="translate(0 0)">
              <g id="Group_47376" data-name="Group 47376" transform="translate(0 0)">
                <path class="mainPath" id="Path_74060" data-name="Path 74060" d="M4.993-17.135a2.709,2.709,0,0,0,1.4-.381,2.863,2.863,0,0,0,1.023-1.023,2.709,2.709,0,0,0,.38-1.4,2.709,2.709,0,0,0-.38-1.4A2.863,2.863,0,0,0,6.391-22.37a2.709,2.709,0,0,0-1.4-.38,2.709,2.709,0,0,0-1.4.38,2.863,2.863,0,0,0-1.023,1.023,2.709,2.709,0,0,0-.38,1.4,2.709,2.709,0,0,0,.38,1.4,2.863,2.863,0,0,0,1.023,1.023,2.709,2.709,0,0,0,1.4.381Zm2.5.624H6.413A3.385,3.385,0,0,1,4.99-16.2a3.385,3.385,0,0,1-1.423-.312H2.5a2.474,2.474,0,0,0-1.258.333,2.427,2.427,0,0,0-.9.9A2.474,2.474,0,0,0,0-14.016v.312a.9.9,0,0,0,.273.666.9.9,0,0,0,.666.273H9.045a.9.9,0,0,0,.666-.273.9.9,0,0,0,.273-.666v-.312a2.474,2.474,0,0,0-.333-1.258,2.427,2.427,0,0,0-.907-.907,2.474,2.474,0,0,0-1.258-.331Z" transform="translate(0 22.75)" fill="#363636" stroke="#e4e4e4" stroke-width="1"/>
              </g>
            </g>
          </g>
        </g>
      </g>
    </g>
  </g>
</svg>
