<svg id="Group_47384" data-name="Group 47384" xmlns="http://www.w3.org/2000/svg" xmlns:xlink="http://www.w3.org/1999/xlink" width="23.084" height="19.575" viewBox="0 0 23.084 19.575">
  <defs>
    <clipPath id="clip-path">
      <rect id="Rectangle_1719" data-name="Rectangle 1719" width="23.084" height="19.575" fill="#373636"/>
    </clipPath>
  </defs>
  <g id="Mask_Group_1602" data-name="Mask Group 1602" clip-path="url(#clip-path)">
    <path class="mainPath" id="Path_1271" data-name="Path 1271" d="M323.735,194.109a2.393,2.393,0,0,1-.491,1.066,1.681,1.681,0,0,1-1.17.65c-1.086.036-2.173.011-3.208.011.013-.666.034-1.345.036-2.025.005-1.667,0-3.334,0-5a5.47,5.47,0,0,0-.247-1.82.742.742,0,0,1-.015-.137,9.6,9.6,0,0,1,2.846.2,3.255,3.255,0,0,1,2.207,2.669.56.56,0,0,0,.039.1Z" transform="translate(-300.652 -176.299)" fill="#373636"/>
    <path class="mainPath" id="Path_1272" data-name="Path 1272" d="M114.687,167.136h-4.574c-.553,0-.795-.242-.795-.795,0-2.186,0-4.371,0-6.557a3.3,3.3,0,0,1,2.615-3.306,3.338,3.338,0,0,1,.736-.077c1.344-.007,2.689-.011,4.033,0a3.3,3.3,0,0,1,3.267,2.6,3.623,3.623,0,0,1,.081.8q.009,3.278,0,6.557a.676.676,0,0,1-.772.772q-2.3,0-4.6,0" transform="translate(-103.144 -147.563)" fill="#373636"/>
    <path class="mainPath" id="Path_1273" data-name="Path 1273" d="M137.468,0a4.005,4.005,0,0,1,0,8.011,4.005,4.005,0,1,1,0-8.011" transform="translate(-125.918 0)" fill="#373636"/>
    <path class="mainPath" id="Path_1274" data-name="Path 1274" d="M4.888,196.007c-.722,0-1.472.007-2.222,0a5.2,5.2,0,0,1-1.163-.076A1.955,1.955,0,0,1,0,193.934C0,192.769,0,191.6,0,190.441A3.335,3.335,0,0,1,3.355,187c.575-.015,1.152,0,1.756,0a3.768,3.768,0,0,0-.132.479,10.093,10.093,0,0,0-.139,1.273c-.015,1.968-.01,3.936,0,5.9,0,.441.033.881.052,1.354" transform="translate(0 -176.434)" fill="#373636"/>
    <path class="mainPath" id="Path_1275" data-name="Path 1275" d="M32.733,69.175a2.994,2.994,0,1,1-2.959-3,3.012,3.012,0,0,1,2.959,3" transform="translate(-25.234 -62.438)" fill="#373636"/>
    <path class="mainPath" id="Path_1276" data-name="Path 1276" d="M282.051,69.159a2.994,2.994,0,1,1-3-2.985,3.008,3.008,0,0,1,3,2.985" transform="translate(-260.476 -62.438)" fill="#373636"/>
  </g>
</svg>
