<svg xmlns="http://www.w3.org/2000/svg" width="16.002" height="17.909" viewBox="0 0 16.002 17.909">
  <g id="Group_47449" data-name="Group 47449" transform="translate(-1055.39 -836.857)">
    <g id="Group_47448" data-name="Group 47448">
      <g id="Group_47442" data-name="Group 47442" transform="translate(124.39 20.857)">
        <g id="Group_47441" data-name="Group 47441" transform="translate(-25)">
          <g id="Group_47440" data-name="Group 47440" transform="translate(956 816)">
            <g id="Group_47439" data-name="Group 47439" transform="translate(0 0)">
              <g id="Group_47438" data-name="Group 47438">
                <g id="Group_47435" data-name="Group 47435">
                  <g id="Group_47425" data-name="Group 47425">
                    <g id="Group_47424" data-name="Group 47424">
                      <g id="Group_47415" data-name="Group 47415">
                        <rect class="mainPath" id="Rectangle_10297" data-name="Rectangle 10297" width="13" height="16.948" rx="2" fill="#373636"/>
                        <path id="Path_74104" data-name="Path 74104" d="M3.185-11.351v-.938a5.91,5.91,0,0,1-1.041-.1,4.014,4.014,0,0,1-.822-.244v-.97a5,5,0,0,0,.865.3,4.728,4.728,0,0,0,1,.15v-1.708a5.882,5.882,0,0,1-1.072-.464,1.648,1.648,0,0,1-.6-.562,1.482,1.482,0,0,1-.191-.772,1.357,1.357,0,0,1,.235-.8A1.6,1.6,0,0,1,2.209-18a2.725,2.725,0,0,1,.977-.232v-.742h.592v.729a4.8,4.8,0,0,1,.936.112,4.5,4.5,0,0,1,.822.271l-.332.847a4.959,4.959,0,0,0-.71-.223,5.236,5.236,0,0,0-.715-.118v1.667a8.119,8.119,0,0,1,.99.392,1.891,1.891,0,0,1,.683.526,1.3,1.3,0,0,1,.248.827,1.41,1.41,0,0,1-.492,1.1,2.45,2.45,0,0,1-1.43.521v.965ZM3.777-13.2a1.273,1.273,0,0,0,.651-.23.563.563,0,0,0,.214-.458.566.566,0,0,0-.089-.323.782.782,0,0,0-.278-.237,2.878,2.878,0,0,0-.5-.2ZM3.185-15.91v-1.425a1.456,1.456,0,0,0-.446.109.64.64,0,0,0-.273.214.54.54,0,0,0-.091.314.669.669,0,0,0,.082.342.7.7,0,0,0,.262.246A2.535,2.535,0,0,0,3.185-15.91Z" transform="translate(1.147 21.101)" fill="#fff"/>
                      </g>
                    </g>
                  </g>
                </g>
                <g id="Group_47436" data-name="Group 47436" transform="translate(5.037 8.558)">
                  <g id="Group_47445" data-name="Group 47445" transform="translate(0)">
                    <path class="mainPath" id="Path_1271" data-name="Path 1271" d="M320.985,190.187a1.1,1.1,0,0,1-.226.49.773.773,0,0,1-.538.3c-.5.017-1,.005-1.475.005.006-.306.016-.619.017-.931,0-.767,0-1.533,0-2.3a2.515,2.515,0,0,0-.114-.837.337.337,0,0,1-.007-.063,4.413,4.413,0,0,1,1.309.093,1.5,1.5,0,0,1,1.015,1.227.257.257,0,0,0,.018.047Z" transform="translate(-310.37 -181.997)" fill="#373636" stroke="#e4e4e4" stroke-width="0.7"/>
                    <path class="mainPath" id="Path_1272" data-name="Path 1272" d="M111.786,161.333h-2.1c-.254,0-.365-.111-.365-.365,0-1.005,0-2.01,0-3.015a1.531,1.531,0,0,1,1.541-1.556c.618,0,1.236-.005,1.855,0a1.516,1.516,0,0,1,1.5,1.2,1.667,1.667,0,0,1,.037.369q0,1.508,0,3.015a.311.311,0,0,1-.355.355h-2.114" transform="translate(-106.478 -152.333)" fill="#373636" stroke="#e4e4e4" stroke-width="0.7"/>
                    <path class="mainPath" id="Path_1273" data-name="Path 1273" d="M135.3,0a1.842,1.842,0,0,1,0,3.684A1.842,1.842,0,1,1,135.3,0" transform="translate(-129.989 0)" fill="#373636" stroke="#e4e4e4" stroke-width="0.7"/>
                    <path class="mainPath" id="Path_1274" data-name="Path 1274" d="M2.247,191.138c-.332,0-.677,0-1.022,0a2.394,2.394,0,0,1-.535-.035.9.9,0,0,1-.69-.917c0-.535,0-1.071,0-1.606A1.533,1.533,0,0,1,1.542,187c.265-.007.53,0,.808,0a1.732,1.732,0,0,0-.061.22,4.641,4.641,0,0,0-.064.585c-.007.9,0,1.81,0,2.715,0,.2.015.405.024.622" transform="translate(0 -182.137)" fill="#373636" stroke="#e4e4e4" stroke-width="0.7"/>
                    <path class="mainPath" id="Path_1275" data-name="Path 1275" d="M29.5,67.554a1.377,1.377,0,1,1-1.361-1.38,1.385,1.385,0,0,1,1.361,1.38" transform="translate(-26.05 -64.457)" fill="#373636" stroke="#e4e4e4" stroke-width="0.7"/>
                    <path class="mainPath" id="Path_1276" data-name="Path 1276" d="M278.816,67.546a1.377,1.377,0,1,1-1.38-1.372,1.383,1.383,0,0,1,1.38,1.372" transform="translate(-268.895 -64.456)" fill="#373636" stroke="#e4e4e4" stroke-width="0.7"/>
                  </g>
                </g>
              </g>
            </g>
          </g>
        </g>
      </g>
    </g>
  </g>
</svg>
