<svg xmlns="http://www.w3.org/2000/svg" width="27.472" height="33" viewBox="0 0 27.472 33">
  <g id="Payroll_logo_updated_2_" data-name="Payroll logo updated (2)" transform="translate(-278.5 -462.1)">
    <g id="Group_4" data-name="Group 4" transform="translate(278.5 462.1)">
      <g id="Group_3" data-name="Group 3">
        <g id="Group_2" data-name="Group 2">
          <path id="Path_8" data-name="Path 8" d="M292.236,489.572a13.736,13.736,0,1,1,13.736-13.736A13.736,13.736,0,0,1,292.236,489.572Zm0-21.039a7.3,7.3,0,1,0,7.3,7.3A7.3,7.3,0,0,0,292.236,468.532Z" transform="translate(-278.5 -462.1)" fill="#373636"/>
        </g>
        <path id="Path_9" data-name="Path 9" d="M307.2,484.8a6.2,6.2,0,1,0,6.2,6.2A6.2,6.2,0,0,0,307.2,484.8Zm-2.345,10.118h-.167l-.268-.771h-1.039v-6.566h6.633v1.541h-5.126v5.8Zm5.092-.771H306.26v-1.374h1.776V491.4H306.26v-.972h3.685Zm.7-3.92h-.871v-.871h.871Zm.67,1.038h-.637v-.637h.637Zm-.1-1.139v-.6h.6v.6Z" transform="translate(-293.462 -477.195)" fill="#d13b27" fill-rule="evenodd"/>
      </g>
      <path id="Path_10" data-name="Path 10" d="M286.172,508.091,278.5,503.3v15.31a3.889,3.889,0,0,0,3.886,3.886h3.786Z" transform="translate(-278.5 -489.497)" fill="#373636"/>
    </g>
  </g>
</svg>
