<svg xmlns="http://www.w3.org/2000/svg" width="23" height="26" viewBox="0 0 23 26">
  <g id="Group_47434" data-name="Group 47434" transform="translate(-1019.993 -828)">
    <g id="Group_47433" data-name="Group 47433" transform="translate(1019.993 828)">
      <rect class="mainPath" id="Rectangle_10297" data-name="Rectangle 10297" width="23" height="26" rx="2" transform="translate(0)" fill="#373636"/>
      <path class="mainPath" id="Path_74104" data-name="Path 74104" d="M5.523-1.812V-3.925A13.309,13.309,0,0,1,3.18-4.156,9.039,9.039,0,0,1,1.329-4.7V-6.889a11.267,11.267,0,0,0,1.949.667,10.647,10.647,0,0,0,2.246.338V-9.73a13.247,13.247,0,0,1-2.415-1.046,3.711,3.711,0,0,1-1.359-1.267,3.337,3.337,0,0,1-.431-1.738,3.056,3.056,0,0,1,.528-1.8,3.613,3.613,0,0,1,1.477-1.195,6.138,6.138,0,0,1,2.2-.523V-18.97H6.856v1.641a10.82,10.82,0,0,1,2.107.251,10.126,10.126,0,0,1,1.851.61l-.749,1.908a11.168,11.168,0,0,0-1.6-.5,11.79,11.79,0,0,0-1.61-.267v3.753a18.282,18.282,0,0,1,2.231.882,4.258,4.258,0,0,1,1.538,1.185,2.929,2.929,0,0,1,.559,1.861,3.174,3.174,0,0,1-1.108,2.487,5.517,5.517,0,0,1-3.22,1.174v2.174ZM6.856-5.966a2.866,2.866,0,0,0,1.467-.518A1.269,1.269,0,0,0,8.8-7.514a1.275,1.275,0,0,0-.2-.728,1.762,1.762,0,0,0-.626-.533,6.481,6.481,0,0,0-1.123-.461ZM5.523-12.078v-3.21a3.279,3.279,0,0,0-1.005.246,1.441,1.441,0,0,0-.615.482,1.215,1.215,0,0,0-.205.708,1.507,1.507,0,0,0,.185.769,1.573,1.573,0,0,0,.59.554A5.708,5.708,0,0,0,5.523-12.078Z" transform="translate(5.612 22.926)" fill="#fff"/>
    </g>
  </g>
</svg>
