<svg xmlns="http://www.w3.org/2000/svg" width="467.2" height="99.8" viewBox="0 0 467.2 99.8">
  <g id="Payroll_logo_updated_2_" data-name="Payroll logo updated (2)" transform="translate(-278.5 -462.1)">
    <g id="Group_1" data-name="Group 1">
      <path id="Path_1" data-name="Path 1" d="M393.6,561.1a4,4,0,0,1-2.9-1.2,3.847,3.847,0,0,1-1.2-2.9V504.6a3.7,3.7,0,0,1,1.2-2.9,4.173,4.173,0,0,1,2.9-1.1h15.5a20.461,20.461,0,0,1,10.3,2.6,18.369,18.369,0,0,1,7,7.1,20.794,20.794,0,0,1,2.5,10.4,19.919,19.919,0,0,1-2.5,10.1,18.553,18.553,0,0,1-7,6.9,20.414,20.414,0,0,1-10.3,2.5H397.6v17a4.357,4.357,0,0,1-1.1,2.9A4.414,4.414,0,0,1,393.6,561.1Zm4-28.4h11.5a12.763,12.763,0,0,0,6.3-1.5,11.82,11.82,0,0,0,4.3-4.3,12.643,12.643,0,0,0,1.5-6.2,13.285,13.285,0,0,0-1.5-6.5,11.629,11.629,0,0,0-4.3-4.5,11.815,11.815,0,0,0-6.3-1.6H397.6Z" fill="#d13b27"/>
      <path id="Path_2" data-name="Path 2" d="M433.1,561.1a3.551,3.551,0,0,1-3.3-1.9,3.9,3.9,0,0,1-.2-3.9l21.8-51.9a3.919,3.919,0,0,1,3.8-2.7,3.755,3.755,0,0,1,3.8,2.7l21.8,52.1a3.856,3.856,0,0,1-.3,3.9,4.079,4.079,0,0,1-5.6,1,3.353,3.353,0,0,1-1.5-1.8l-19.2-47.7h2.2l-19.5,47.7a4.944,4.944,0,0,1-1.6,1.9A4.866,4.866,0,0,1,433.1,561.1Zm4.1-13.3,3.1-6.7h30.3l3.1,6.7Z" fill="#d13b27"/>
      <path id="Path_3" data-name="Path 3" d="M501.8,561.1a3.784,3.784,0,0,1-2.8-1.2,3.847,3.847,0,0,1-1.2-2.9V539l-20.7-32.1a4.678,4.678,0,0,1-.8-3.1,3.489,3.489,0,0,1,1.4-2.3,3.916,3.916,0,0,1,2.6-.9,3.281,3.281,0,0,1,2.1.6,6.461,6.461,0,0,1,1.5,1.7l19.7,31.2h-3.1l20-31.5a4.01,4.01,0,0,1,1.5-1.4,4.648,4.648,0,0,1,2.1-.5,2.9,2.9,0,0,1,2.3,1,3.85,3.85,0,0,1,1.1,2.4,4.588,4.588,0,0,1-.8,2.9l-20.8,32v18a4.005,4.005,0,0,1-1.2,2.9A3.847,3.847,0,0,1,501.8,561.1Z" fill="#d13b27"/>
      <path id="Path_4" data-name="Path 4" d="M539.6,561.1a4.005,4.005,0,0,1-2.9-1.2,3.847,3.847,0,0,1-1.2-2.9V504.6a3.7,3.7,0,0,1,1.2-2.9,4.172,4.172,0,0,1,2.9-1.1h13.9a21.457,21.457,0,0,1,10.3,2.4,18.054,18.054,0,0,1,7,6.7,18.684,18.684,0,0,1,2.5,9.9,17.637,17.637,0,0,1-2.5,9.4,17.339,17.339,0,0,1-7,6.4,21.423,21.423,0,0,1-10.3,2.3h-9.9V557a4.357,4.357,0,0,1-1.1,2.9A3.7,3.7,0,0,1,539.6,561.1Zm4-30.7h9.9a13.924,13.924,0,0,0,6.3-1.4,11.294,11.294,0,0,0,4.3-3.8,10.323,10.323,0,0,0,1.5-5.5,11.619,11.619,0,0,0-1.5-6,10.615,10.615,0,0,0-4.3-4.1,12.763,12.763,0,0,0-6.3-1.5h-9.9Zm28.1,30.7a4.552,4.552,0,0,1-2-.5,3.607,3.607,0,0,1-1.5-1.5l-13.9-22.4,7.8-2.2,12.7,20.4a4.053,4.053,0,0,1,.4,4.2A3.633,3.633,0,0,1,571.7,561.1Z" fill="#d13b27"/>
      <path id="Path_5" data-name="Path 5" d="M612.4,561.9a33.894,33.894,0,0,1-12.5-2.3,28.3,28.3,0,0,1-9.7-6.4,29.472,29.472,0,0,1-6.3-9.8,36.611,36.611,0,0,1,0-25,29.472,29.472,0,0,1,6.3-9.8,26.936,26.936,0,0,1,9.7-6.4,33.512,33.512,0,0,1,12.5-2.3,32.986,32.986,0,0,1,12.4,2.3,29.287,29.287,0,0,1,9.7,6.4,27.987,27.987,0,0,1,6.3,9.8,36.611,36.611,0,0,1,0,25,28.494,28.494,0,0,1-6.3,9.8,27.825,27.825,0,0,1-9.7,6.4A32.613,32.613,0,0,1,612.4,561.9Zm0-7.3a22.881,22.881,0,0,0,9.2-1.8,22.067,22.067,0,0,0,7.3-5,21.4,21.4,0,0,0,4.8-7.6,26.838,26.838,0,0,0,0-18.8,22.317,22.317,0,0,0-4.8-7.6,22.524,22.524,0,0,0-16.5-6.8,23.722,23.722,0,0,0-9.3,1.8,23.143,23.143,0,0,0-7.3,5,24.6,24.6,0,0,0-4.8,7.6,26.838,26.838,0,0,0,0,18.8,22.317,22.317,0,0,0,4.8,7.6,22.067,22.067,0,0,0,7.3,5A24.079,24.079,0,0,0,612.4,554.6Z" fill="#d13b27"/>
      <path id="Path_6" data-name="Path 6" d="M659.7,561.1a3.631,3.631,0,0,1-2.8-1.2,4.172,4.172,0,0,1-1.1-2.9V504.6a4,4,0,0,1,1.2-2.9,3.784,3.784,0,0,1,2.8-1.2,4.005,4.005,0,0,1,2.9,1.2,3.847,3.847,0,0,1,1.2,2.9V553h28a4.005,4.005,0,0,1,2.9,1.2,3.847,3.847,0,0,1,1.2,2.9,4.005,4.005,0,0,1-1.2,2.9,3.847,3.847,0,0,1-2.9,1.2H659.7Z" fill="#d13b27"/>
      <path id="Path_7" data-name="Path 7" d="M709.4,561.1a3.631,3.631,0,0,1-2.8-1.2,4.172,4.172,0,0,1-1.1-2.9V504.6a4,4,0,0,1,1.2-2.9,3.784,3.784,0,0,1,2.8-1.2,4.005,4.005,0,0,1,2.9,1.2,3.847,3.847,0,0,1,1.2,2.9V553h28a4.005,4.005,0,0,1,2.9,1.2,3.847,3.847,0,0,1,1.2,2.9,4.005,4.005,0,0,1-1.2,2.9,3.847,3.847,0,0,1-2.9,1.2H709.4Z" fill="#d13b27"/>
    </g>
    <g id="Group_4" data-name="Group 4">
      <g id="Group_3" data-name="Group 3">
        <g id="Group_2" data-name="Group 2">
          <path id="Path_8" data-name="Path 8" d="M319.5,544.1a41,41,0,1,1,41-41A41.056,41.056,0,0,1,319.5,544.1Zm0-62.8a21.8,21.8,0,1,0,21.8,21.8A21.851,21.851,0,0,0,319.5,481.3Z" fill="#373636"/>
        </g>
        <path id="Path_9" data-name="Path 9" d="M319.5,484.8A18.5,18.5,0,1,0,338,503.3,18.522,18.522,0,0,0,319.5,484.8Zm-7,30.2H312l-.8-2.3h-3.1V493.1h19.8v4.6H312.6V515Zm15.2-2.3h-11v-4.1H322v-4.1h-5.3v-2.9h11Zm2.1-11.7h-2.6v-2.6h2.6Zm2,3.1h-1.9v-1.9h1.9Zm-.3-3.4v-1.8h1.8v1.8Z" fill="#d13b27" fill-rule="evenodd"/>
      </g>
      <path id="Path_10" data-name="Path 10" d="M301.4,517.6l-22.9-14.3V549a11.608,11.608,0,0,0,11.6,11.6h11.3Z" fill="#373636"/>
    </g>
  </g>
</svg>
