<svg id="Layer_1" data-name="Layer 1" xmlns="http://www.w3.org/2000/svg" viewBox="0 0 523.26 154.83"><defs><style>.cls-1,.cls-3{fill:#d13b27;}.cls-2{fill:#373636;}.cls-3{fill-rule:evenodd;}</style></defs><title>FPayroll</title><path class="cls-1" d="M421.31,495.74a4,4,0,0,1-4-4V439.31a3.86,3.86,0,0,1,1.16-2.9,4,4,0,0,1,2.87-1.13h35a3.92,3.92,0,0,1,2.86,1.05,3.6,3.6,0,0,1,1.09,2.74,3.41,3.41,0,0,1-1.09,2.64,4,4,0,0,1-2.86,1h-31v18.81h22.22a4,4,0,0,1,2.87,1,3.84,3.84,0,0,1,0,5.34,4,4,0,0,1-2.87,1H425.33v22.76a4,4,0,0,1-4,4Z" transform="translate(-250.37 -434.58)"/><path class="cls-1" d="M474.49,495.74a3.76,3.76,0,0,1-2.82-1.16,4,4,0,0,1-1.13-2.86V439.31a3.92,3.92,0,0,1,1.16-2.87,3.84,3.84,0,0,1,2.79-1.16,4,4,0,0,1,4,4v48.38h28a4,4,0,1,1,0,8.05Z" transform="translate(-250.37 -434.58)"/><path class="cls-1" d="M517.84,495.74a3.73,3.73,0,0,1-3.33-1.85,4,4,0,0,1-.23-3.95L536,438a3.91,3.91,0,0,1,3.79-2.71,3.75,3.75,0,0,1,3.79,2.71l21.83,52.1a4.08,4.08,0,0,1-.27,3.91,3.74,3.74,0,0,1-3.37,1.74,4.05,4.05,0,0,1-2.2-.65,3.72,3.72,0,0,1-1.51-1.83l-19.2-47.68h2.17l-19.51,47.68a3.85,3.85,0,0,1-1.59,1.86A4,4,0,0,1,517.84,495.74ZM522,482.43l3.09-6.66h30.35l3.09,6.66Z" transform="translate(-250.37 -434.58)"/><path class="cls-1" d="M578.69,495.74a4,4,0,0,1-4-4V439.31a3.86,3.86,0,0,1,1.16-2.9,4,4,0,0,1,2.87-1.13,3.87,3.87,0,0,1,4,4v52.41a4,4,0,0,1-1.13,2.86A3.86,3.86,0,0,1,578.69,495.74Z" transform="translate(-250.37 -434.58)"/><path class="cls-1" d="M602.22,495.74a4,4,0,0,1-4-4V439.31a3.83,3.83,0,0,1,1.16-2.9,4,4,0,0,1,2.86-1.13h13.94a21.26,21.26,0,0,1,10.29,2.44,17.88,17.88,0,0,1,7,6.7,19.09,19.09,0,0,1,2.52,9.91,17.18,17.18,0,0,1-9.53,15.79,22,22,0,0,1-10.29,2.32h-9.91v19.28a4,4,0,0,1-1.12,2.86A3.89,3.89,0,0,1,602.22,495.74Zm4-30.73h9.91a13.91,13.91,0,0,0,6.27-1.35,10.53,10.53,0,0,0,4.26-3.8,10.1,10.1,0,0,0,1.55-5.53,11.7,11.7,0,0,0-1.55-6,10.9,10.9,0,0,0-4.26-4.1,13,13,0,0,0-6.27-1.47h-9.91Zm28.1,30.73a4.18,4.18,0,0,1-2-.46,3.86,3.86,0,0,1-1.51-1.47l-13.94-22.45,7.82-2.25,12.7,20.44a4.08,4.08,0,0,1,.38,4.22A3.57,3.57,0,0,1,634.35,495.74Z" transform="translate(-250.37 -434.58)"/><path class="cls-1" d="M666.32,496.52a28.8,28.8,0,0,1-9.44-1.55,24.45,24.45,0,0,1-7.82-4.34,17,17,0,0,1-4.88-6.42,3.09,3.09,0,0,1,0-3,4.27,4.27,0,0,1,5.5-1.36,4.84,4.84,0,0,1,2,2.21,10,10,0,0,0,3.06,3.56,17.88,17.88,0,0,0,5.14,2.64,20,20,0,0,0,6.35,1,19.66,19.66,0,0,0,6.85-1.16,12.32,12.32,0,0,0,5.08-3.37,8,8,0,0,0,1.93-5.45A10.22,10.22,0,0,0,677,471.9q-3.22-3.25-10.57-4-9.6-.94-15.1-5.66a14.8,14.8,0,0,1-5.49-11.69,13.41,13.41,0,0,1,2.86-8.67,17.82,17.82,0,0,1,7.78-5.42,31,31,0,0,1,11-1.86,23.7,23.7,0,0,1,8.24,1.32,19.62,19.62,0,0,1,6.16,3.64,23.83,23.83,0,0,1,4.56,5.5,4.82,4.82,0,0,1,.89,3.21,3.17,3.17,0,0,1-1.51,2.36,3.61,3.61,0,0,1-3.17.39,4.36,4.36,0,0,1-2.56-2,13.08,13.08,0,0,0-7.19-6.24,16.36,16.36,0,0,0-5.66-.89,18.6,18.6,0,0,0-9.59,2.13,7.28,7.28,0,0,0-3.88,6.78,9,9,0,0,0,1.2,4.45,9.64,9.64,0,0,0,4.42,3.67,28.48,28.48,0,0,0,9.25,2.17q9.21.93,14.36,5.61A15.92,15.92,0,0,1,688.08,479a15.44,15.44,0,0,1-1.82,7.66,16.92,16.92,0,0,1-4.88,5.47,21.84,21.84,0,0,1-7,3.28A30.2,30.2,0,0,1,666.32,496.52Z" transform="translate(-250.37 -434.58)"/><path class="cls-2" d="M421.71,588.64a4,4,0,0,1-4-4V532.2a3.84,3.84,0,0,1,1.16-2.89,4,4,0,0,1,2.87-1.13h15.48a20.42,20.42,0,0,1,10.3,2.56,18.05,18.05,0,0,1,7,7.08A21.05,21.05,0,0,1,457,548.23a19.88,19.88,0,0,1-2.52,10.06,17.64,17.64,0,0,1-7,6.89,20.9,20.9,0,0,1-10.3,2.48H425.73v17a4,4,0,0,1-1.12,2.87A3.88,3.88,0,0,1,421.71,588.64Zm4-28.41h11.46a12.43,12.43,0,0,0,6.27-1.55,11.17,11.17,0,0,0,4.26-4.26,12.26,12.26,0,0,0,1.55-6.19,13.4,13.4,0,0,0-1.55-6.54,11.54,11.54,0,0,0-4.26-4.45,11.89,11.89,0,0,0-6.27-1.63H425.73Z" transform="translate(-250.37 -434.58)"/><path class="cls-2" d="M461.19,588.64a3.71,3.71,0,0,1-3.33-1.86,4,4,0,0,1-.23-3.94l21.75-52a3.93,3.93,0,0,1,3.79-2.71,3.76,3.76,0,0,1,3.8,2.71L508.8,583a4.1,4.1,0,0,1-.27,3.91,3.74,3.74,0,0,1-3.37,1.74A4.17,4.17,0,0,1,503,588a3.82,3.82,0,0,1-1.51-1.83l-19.19-47.68h2.16L464.9,586.16a3.83,3.83,0,0,1-1.58,1.86A4.08,4.08,0,0,1,461.19,588.64Zm4.1-13.31,3.1-6.66h30.35l3.09,6.66Z" transform="translate(-250.37 -434.58)"/><path class="cls-2" d="M529.93,588.64a3.8,3.8,0,0,1-2.78-1.16,3.89,3.89,0,0,1-1.17-2.87v-18l-20.66-32.13a4.4,4.4,0,0,1-.78-3.05,3.6,3.6,0,0,1,1.35-2.33,4.1,4.1,0,0,1,2.6-.89,3.39,3.39,0,0,1,2.09.58,6.41,6.41,0,0,1,1.47,1.66l19.66,31.21h-3.09l20-31.52a4.65,4.65,0,0,1,1.47-1.43,4.09,4.09,0,0,1,2.09-.5,3.1,3.1,0,0,1,2.32,1,4,4,0,0,1,1.09,2.4,4.47,4.47,0,0,1-.78,2.9L534,566.58v18a4,4,0,0,1-4,4Z" transform="translate(-250.37 -434.58)"/><path class="cls-2" d="M567.71,588.64a4,4,0,0,1-4-4V532.2a3.81,3.81,0,0,1,1.16-2.89,4,4,0,0,1,2.86-1.13h13.94a21.26,21.26,0,0,1,10.29,2.44,17.87,17.87,0,0,1,7,6.7,19.14,19.14,0,0,1,2.51,9.9,17.18,17.18,0,0,1-9.52,15.8,22,22,0,0,1-10.29,2.32h-9.91v19.27a4,4,0,0,1-1.13,2.87A3.85,3.85,0,0,1,567.71,588.64Zm4-30.73h9.91a13.78,13.78,0,0,0,6.27-1.36,10.58,10.58,0,0,0,4.26-3.79,10.11,10.11,0,0,0,1.54-5.54,11.72,11.72,0,0,0-1.54-6,11,11,0,0,0-4.26-4.1,13,13,0,0,0-6.27-1.47h-9.91Zm28.1,30.73a4.22,4.22,0,0,1-2-.46,4,4,0,0,1-1.51-1.48l-13.93-22.44,7.82-2.25,12.7,20.44a4.1,4.1,0,0,1,.38,4.22A3.57,3.57,0,0,1,599.84,588.64Z" transform="translate(-250.37 -434.58)"/><path class="cls-2" d="M640.56,589.42a33,33,0,0,1-12.47-2.29,28.2,28.2,0,0,1-9.71-6.42,29,29,0,0,1-6.31-9.83,33.75,33.75,0,0,1-2.25-12.51,33.41,33.41,0,0,1,2.25-12.46,29,29,0,0,1,6.31-9.79,28.08,28.08,0,0,1,9.71-6.43,33,33,0,0,1,12.47-2.28A32.7,32.7,0,0,1,653,529.69,28.52,28.52,0,0,1,669,545.91a33.41,33.41,0,0,1,2.25,12.46A33.75,33.75,0,0,1,669,570.88,28.38,28.38,0,0,1,653,587.13,32.7,32.7,0,0,1,640.56,589.42Zm0-7.28a23.2,23.2,0,0,0,9.25-1.82,22.09,22.09,0,0,0,12.07-12.58,27.09,27.09,0,0,0,0-18.73,22.13,22.13,0,0,0-4.76-7.55,21.88,21.88,0,0,0-7.31-5,25,25,0,0,0-18.51,0,21.51,21.51,0,0,0-7.27,5,22.92,22.92,0,0,0-4.76,7.55,26.5,26.5,0,0,0,0,18.73,22.92,22.92,0,0,0,4.76,7.55,21.88,21.88,0,0,0,7.27,5A23.22,23.22,0,0,0,640.56,582.14Z" transform="translate(-250.37 -434.58)"/><path class="cls-2" d="M687.86,588.64a3.78,3.78,0,0,1-2.83-1.16,4,4,0,0,1-1.12-2.87V532.2a3.86,3.86,0,0,1,1.16-2.86,3.81,3.81,0,0,1,2.79-1.16,4,4,0,0,1,4,4v48.39h28a4,4,0,1,1,0,8Z" transform="translate(-250.37 -434.58)"/><path class="cls-2" d="M737.56,588.64a3.78,3.78,0,0,1-2.83-1.16,4,4,0,0,1-1.12-2.87V532.2a3.86,3.86,0,0,1,1.16-2.86,3.81,3.81,0,0,1,2.79-1.16,4,4,0,0,1,4,4v48.39h28a4,4,0,1,1,0,8Z" transform="translate(-250.37 -434.58)"/><path class="cls-2" d="M314.39,562.85a64,64,0,1,1,64-64A64.09,64.09,0,0,1,314.39,562.85Zm0-98.05a34,34,0,1,0,34,34A34.07,34.07,0,0,0,314.39,464.8Z" transform="translate(-250.37 -434.58)"/><path class="cls-3" d="M314.39,470.19a28.93,28.93,0,1,0,28.93,28.92A28.92,28.92,0,0,0,314.39,470.19Zm-10.95,47.2h-.86l-1.27-3.62-4.89,0V483.1h30.86v7.17l-23.84.07Zm23.84-3.62H310v-6.39h8.3V501H310v-4.47h17.24Zm3.22-18.3h-4.05v-4.05h4.05Zm3.19,4.89h-3v-3h3Zm-.47-5.34v-2.77H336V495Z" transform="translate(-250.37 -434.58)"/><path class="cls-2" d="M286.09,521.41l-35.72-22.3v71.43a18.1,18.1,0,0,0,18.1,18.1h17.62Z" transform="translate(-250.37 -434.58)"/></svg>