<svg id="Capa_1" enable-background="new 0 0 512 512" height="512" viewBox="0 0 512 512" width="512" xmlns="http://www.w3.org/2000/svg"><g id="XMLID_1713_"><g id="XMLID_1909_"><g id="XMLID_193_"><path id="XMLID_196_" d="m282 260h-82.7c8.034-5.063 15.633-11.085 22.625-18.076 18.819-18.819 31.263-42.561 35.988-68.659 4.614-25.487 1.615-51.468-8.674-75.136-2.202-5.065-8.094-7.387-13.158-5.184-5.065 2.202-7.386 8.093-5.184 13.158 18.142 41.733 9.069 89.495-23.114 121.679-21.447 21.447-49.61 32.169-77.782 32.167-28.166-.002-56.34-10.725-77.782-32.166-42.889-42.889-42.889-112.675 0-155.564 32.185-32.185 79.947-41.256 121.681-23.114 5.065 2.202 10.956-.119 13.158-5.184s-.119-10.956-5.184-13.158c-23.667-10.289-49.648-13.288-75.137-8.675-26.098 4.725-49.84 17.169-68.66 35.989-50.687 50.687-50.687 133.161 0 183.848 6.991 6.991 14.59 13.013 22.624 18.076h-18.701c-5.523 0-10 4.477-10 10v48h-22c-5.523 0-10 4.477-10 10v58c0 5.523 4.477 10 10 10h22v38h-22c-5.523 0-10 4.477-10 10v58c0 5.523 4.477 10 10 10h240c5.523 0 10-4.477 10-10v-48h22c5.523 0 10-4.477 10-10v-58c0-5.523-4.477-10-10-10h-22v-38h22c5.523 0 10-4.477 10-10v-58c0-5.524-4.477-10.001-10-10.001zm-42 232h-220v-38h220zm32-58h-220v-38h220zm-32-58h-220v-38h220zm32-58h-220v-38h220z"/><path id="XMLID_202_" d="m510.294 148.414-96.995-144c-1.858-2.76-4.967-4.414-8.294-4.414s-6.436 1.654-8.294 4.414l-96.995 144c-2.065 3.066-2.271 7.021-.534 10.284 1.736 3.263 5.131 5.302 8.828 5.302h43.031v338c0 5.523 4.477 10 10 10h87.959c5.523 0 10-4.477 10-10v-338h43c3.696 0 7.091-2.039 8.828-5.302 1.736-3.264 1.531-7.219-.534-10.284zm-61.294-4.414c-5.523 0-10 4.477-10 10v338h-67.958v-338c0-5.523-4.477-10-10-10h-34.238l78.202-116.1 78.202 116.1z"/><path id="XMLID_203_" d="m214.85 75.15c2.63 0 5.21-1.07 7.07-2.93 1.87-1.86 2.93-4.44 2.93-7.07 0-2.64-1.06-5.21-2.93-7.07-1.86-1.87-4.43-2.93-7.07-2.93-2.63 0-5.21 1.06-7.07 2.93-1.86 1.86-2.93 4.44-2.93 7.07s1.07 5.2 2.93 7.07c1.86 1.86 4.44 2.93 7.07 2.93z"/><path id="XMLID_206_" d="m130 240.226c5.523 0 10-4.477 10-10v-9.551c18.613-4.583 30.549-20.419 33.174-36.036 3.399-20.223-7.171-37.802-26.929-44.786-2.055-.726-4.149-1.481-6.245-2.261v-38.937c5.225 1.741 8.659 4.177 8.84 4.308 4.399 3.292 10.637 2.416 13.959-1.97 3.335-4.402 2.47-10.674-1.932-14.009-.529-.401-8.741-6.494-20.868-9.011v-8.199c0-5.523-4.477-10-10-10s-10 4.477-10 10v8.133c-1.306.273-2.626.597-3.961.999-13.059 3.923-22.817 15.08-25.468 29.116-2.426 12.847 1.712 25.254 10.798 32.381 4.725 3.706 10.593 7.091 18.631 10.663v50.696c-6.671-.545-10.999-2.238-18.301-7.015-4.622-3.023-10.819-1.728-13.843 2.894s-1.728 10.819 2.894 13.843c11.418 7.47 19.234 9.738 29.25 10.33v8.414c.001 5.521 4.478 9.998 10.001 9.998zm23.451-58.902c-1.184 7.043-5.746 14.487-13.451 18.224v-40.678c15.03 5.562 14.104 18.569 13.451 22.454zm-39.74-56.659c-3.138-2.461-4.507-7.537-3.488-12.933.899-4.758 3.938-10.426 9.776-12.998v30.032c-2.35-1.319-4.483-2.685-6.288-4.101z"/></g></g></g></svg>