<svg xmlns="http://www.w3.org/2000/svg" width="22.75" height="22.75" viewBox="0 0 22.75 22.75">
  <path id="Path_74062" data-name="Path 74062" d="M11.375-9.953a6.176,6.176,0,0,0,3.2-.866,6.521,6.521,0,0,0,2.333-2.333,6.176,6.176,0,0,0,.866-3.2,6.176,6.176,0,0,0-.866-3.2,6.521,6.521,0,0,0-2.333-2.333,6.176,6.176,0,0,0-3.2-.866,6.176,6.176,0,0,0-3.2.866,6.521,6.521,0,0,0-2.333,2.333,6.176,6.176,0,0,0-.866,3.2,6.176,6.176,0,0,0,.866,3.2A6.521,6.521,0,0,0,8.176-10.82,6.176,6.176,0,0,0,11.375-9.953Zm5.688,1.422H14.619a7.716,7.716,0,0,1-3.244.711,7.716,7.716,0,0,1-3.244-.711H5.688a5.639,5.639,0,0,0-2.866.755A5.533,5.533,0,0,0,.755-5.71,5.639,5.639,0,0,0,0-2.844v.711A2.057,2.057,0,0,0,.622-.622,2.057,2.057,0,0,0,2.133,0H20.617a2.057,2.057,0,0,0,1.511-.622,2.057,2.057,0,0,0,.622-1.511v-.711a5.639,5.639,0,0,0-.755-2.866,5.533,5.533,0,0,0-2.066-2.066A5.64,5.64,0,0,0,17.063-8.531Z" transform="translate(0 22.75)" fill="#d13b27"/>
</svg>
