<svg id="Layer_1" data-name="Layer 1" xmlns="http://www.w3.org/2000/svg" viewBox="0 0 1003.49 1003.49"><title>raises</title><path d="M600,92C322.89,92,98.26,316.64,98.26,593.74S322.89,1095.49,600,1095.49s501.74-224.64,501.74-501.75S877.11,92,600,92ZM930.62,603.36a17.12,17.12,0,0,1-16.39,17.1l-46.91,2a17.12,17.12,0,0,1-17.85-17.1V512.72L633.31,725.79a37.36,37.36,0,0,1-51.77.66L499,649.12,331.69,813.18a17.11,17.11,0,0,1-24.27-.3l-33.2-34.21a17.11,17.11,0,0,1,.22-24.07l199-197.51a37.37,37.37,0,0,1,51.87-.75l70.5,66a17.11,17.11,0,0,0,23.69-.28l173-169.79H698.76a17.12,17.12,0,0,1-17.12-16.77l-1-48.63a17.12,17.12,0,0,1,17.11-17.48H917.67a13,13,0,0,1,13,12.95Z" transform="translate(-98.26 -92)"/></svg>