<svg xmlns="http://www.w3.org/2000/svg" width="22.75" height="21.667" viewBox="0 0 22.75 21.667">
  <g id="Group_47432" data-name="Group 47432" transform="translate(-1020.007 -505.993)">
    <g id="Group_47431" data-name="Group 47431">
      <g id="Group_47430" data-name="Group 47430">
        <g id="Group_47429" data-name="Group 47429">
          <g id="Group_47428" data-name="Group 47428">
            <g id="Group_47427" data-name="Group 47427">
              <rect class="mainPath" id="Rectangle_10298" data-name="Rectangle 10298" width="5.417" height="21.667" transform="translate(1020.007 505.993)"/>
              <rect class="mainPath" id="Rectangle_10299" data-name="Rectangle 10299" width="5.417" height="8.667" transform="translate(1028.673 518.993)"/>
              <rect class="mainPath" id="Rectangle_10300" data-name="Rectangle 10300" width="5.417" height="13" transform="translate(1037.34 514.659)"/>
              <path class="mainPath" id="Path_74109" data-name="Path 74109" d="M5.438-2.16v-2.07a13.04,13.04,0,0,1-2.3-.226,8.856,8.856,0,0,1-1.814-.538v-2.14a11.039,11.039,0,0,0,1.909.653,10.431,10.431,0,0,0,2.2.332V-9.917a12.979,12.979,0,0,1-2.366-1.025A3.636,3.636,0,0,1,1.74-12.182a3.269,3.269,0,0,1-.422-1.7,3,3,0,0,1,.517-1.763,3.54,3.54,0,0,1,1.447-1.171,6.013,6.013,0,0,1,2.155-.512V-18.97H6.744v1.608a10.6,10.6,0,0,1,2.065.246,9.922,9.922,0,0,1,1.814.6l-.734,1.869a10.942,10.942,0,0,0-1.567-.492A11.552,11.552,0,0,0,6.744-15.4v3.678a17.913,17.913,0,0,1,2.185.864A4.172,4.172,0,0,1,10.437-9.7a2.87,2.87,0,0,1,.548,1.824A3.11,3.11,0,0,1,9.9-5.44,5.406,5.406,0,0,1,6.744-4.29v2.13ZM6.744-6.229a2.808,2.808,0,0,0,1.437-.507,1.243,1.243,0,0,0,.472-1.01,1.249,1.249,0,0,0-.2-.713,1.726,1.726,0,0,0-.613-.522,6.35,6.35,0,0,0-1.1-.452ZM5.438-12.218v-3.145a3.212,3.212,0,0,0-.985.241,1.412,1.412,0,0,0-.6.472,1.191,1.191,0,0,0-.2.693,1.477,1.477,0,0,0,.181.754,1.541,1.541,0,0,0,.578.543A5.592,5.592,0,0,0,5.438-12.218Z" transform="translate(1025.272 526.046)" fill="#e3e3e3" stroke="#e3e3e3" stroke-width="1"/>
              <path class="mainPath mainPath-stroke" id="Path_74110" data-name="Path 74110" d="M5.438-2.16v-2.07a13.04,13.04,0,0,1-2.3-.226,8.856,8.856,0,0,1-1.814-.538v-2.14a11.039,11.039,0,0,0,1.909.653,10.431,10.431,0,0,0,2.2.332V-9.917a12.979,12.979,0,0,1-2.366-1.025A3.636,3.636,0,0,1,1.74-12.182a3.269,3.269,0,0,1-.422-1.7,3,3,0,0,1,.517-1.763,3.54,3.54,0,0,1,1.447-1.171,6.013,6.013,0,0,1,2.155-.512V-18.97H6.744v1.608a10.6,10.6,0,0,1,2.065.246,9.922,9.922,0,0,1,1.814.6l-.734,1.869a10.942,10.942,0,0,0-1.567-.492A11.552,11.552,0,0,0,6.744-15.4v3.678a17.913,17.913,0,0,1,2.185.864A4.172,4.172,0,0,1,10.437-9.7a2.87,2.87,0,0,1,.548,1.824A3.11,3.11,0,0,1,9.9-5.44,5.406,5.406,0,0,1,6.744-4.29v2.13ZM6.744-6.229a2.808,2.808,0,0,0,1.437-.507,1.243,1.243,0,0,0,.472-1.01,1.249,1.249,0,0,0-.2-.713,1.726,1.726,0,0,0-.613-.522,6.35,6.35,0,0,0-1.1-.452ZM5.438-12.218v-3.145a3.212,3.212,0,0,0-.985.241,1.412,1.412,0,0,0-.6.472,1.191,1.191,0,0,0-.2.693,1.477,1.477,0,0,0,.181.754,1.541,1.541,0,0,0,.578.543A5.592,5.592,0,0,0,5.438-12.218Z" transform="translate(1025.272 525.485)" stroke="#000" stroke-width="0.5"/>
            </g>
          </g>
        </g>
      </g>
    </g>
  </g>
</svg>
