<svg xmlns="http://www.w3.org/2000/svg" width="22.75" height="28.438" viewBox="0 0 22.75 28.438">
  <g id="Group_47402" data-name="Group 47402" transform="translate(-1075 -679.944)">
    <g id="Group_47401" data-name="Group 47401" transform="translate(1075 679.944)">
      <path id="Path_74075" data-name="Path 74075" d="M25.911,9.692,19.043,2.825a2.841,2.841,0,0,0-2-.825H6.844a2.84,2.84,0,0,0-2.83,2.844L4,27.594a2.84,2.84,0,0,0,2.83,2.844H23.906a2.852,2.852,0,0,0,2.844-2.844V11.711A2.852,2.852,0,0,0,25.911,9.692Zm-7.692.839A1.426,1.426,0,0,1,16.8,9.109V4.133l6.4,6.4Z" transform="translate(-4 -2)" fill="#373636"/>
      <path id="Path_74076" data-name="Path 74076" d="M5.03-3.824V-5.689a11.748,11.748,0,0,1-2.069-.2,7.979,7.979,0,0,1-1.634-.484V-8.305a9.946,9.946,0,0,0,1.72.588,9.4,9.4,0,0,0,1.983.3v-3.395A11.694,11.694,0,0,1,2.9-11.736a3.276,3.276,0,0,1-1.2-1.118,2.945,2.945,0,0,1-.38-1.535,2.7,2.7,0,0,1,.466-1.589,3.19,3.19,0,0,1,1.3-1.055,5.418,5.418,0,0,1,1.942-.462V-18.97H6.207v1.448a9.551,9.551,0,0,1,1.86.222,8.939,8.939,0,0,1,1.634.539l-.661,1.684a9.859,9.859,0,0,0-1.412-.444,10.408,10.408,0,0,0-1.421-.235v3.313a16.139,16.139,0,0,1,1.969.779,3.759,3.759,0,0,1,1.358,1.046,2.586,2.586,0,0,1,.493,1.643,2.8,2.8,0,0,1-.978,2.2A4.87,4.87,0,0,1,6.207-5.743v1.919ZM6.207-7.49A2.53,2.53,0,0,0,7.5-7.948a1.12,1.12,0,0,0,.425-.91A1.126,1.126,0,0,0,7.751-9.5,1.556,1.556,0,0,0,7.2-9.971a5.721,5.721,0,0,0-.991-.407Zm-1.177-5.4V-15.72a2.894,2.894,0,0,0-.887.217,1.272,1.272,0,0,0-.543.425,1.073,1.073,0,0,0-.181.625,1.331,1.331,0,0,0,.163.679,1.388,1.388,0,0,0,.521.489A5.039,5.039,0,0,0,5.03-12.886Z" transform="translate(5.216 29.145)" fill="#373636"/>
    </g>
  </g>
</svg>
