<svg height="512" viewBox="0 0 512 512" width="512" xmlns="http://www.w3.org/2000/svg"><g id="outline"><path d="m454 464a34.038 34.038 0 0 0 34-34v-348a34.038 34.038 0 0 0 -34-34h-204a34.038 34.038 0 0 0 -34 34v190h-166a18.021 18.021 0 0 0 -18 18v156a18.021 18.021 0 0 0 18 18zm-230-16v-16h64a8 8 0 0 0 8-8 16.019 16.019 0 0 1 16-16 8 8 0 0 0 8-8v-64a8 8 0 0 0 -8-8 16.02 16.02 0 0 1 -16-16 8 8 0 0 0 -8-8h-64v-16h110a2 2 0 0 1 2 2v156a2 2 0 0 1 -2 2zm0-44.177v-71.574a48.262 48.262 0 0 1 16 35.751 47.658 47.658 0 0 1 -16 35.823zm32-35.823a64.347 64.347 0 0 0 -21.709-48h46.722a32.117 32.117 0 0 0 22.987 22.987v50.026a32.115 32.115 0 0 0 -22.987 22.987h-46.62a63.529 63.529 0 0 0 21.607-48zm8-112a16 16 0 1 1 16 16 16.019 16.019 0 0 1 -16-16zm72 0a16 16 0 1 1 16 16 16.019 16.019 0 0 1 -16-16zm16 128a16 16 0 0 1 0 32zm0-72a16 16 0 0 1 0 32zm-120-230a18.021 18.021 0 0 1 18-18h204a18.021 18.021 0 0 1 18 18v348a18.021 18.021 0 0 1 -18 18h-102.118a18.081 18.081 0 0 0 .118-2v-14a32 32 0 0 0 0-64v-8a32 32 0 0 0 0-64v-6a18.15 18.15 0 0 0 -.118-2h.118a32.042 32.042 0 1 0 -27.695-16h-16.605a32 32 0 1 0 -55.39 0h-20.31zm-72 250.249v71.541a47.985 47.985 0 0 1 0-71.541zm-32 35.751a63.894 63.894 0 0 0 21.656 48h-46.669a32.115 32.115 0 0 0 -22.987-22.987v-50.026a32.115 32.115 0 0 0 22.987-22.987h46.722a64.347 64.347 0 0 0 -21.709 48zm-80 78v-156a2 2 0 0 1 2-2h110v16h-64a8 8 0 0 0 -8 8 16.019 16.019 0 0 1 -16 16 8 8 0 0 0 -8 8v64a8 8 0 0 0 8 8 16.019 16.019 0 0 1 16 16 8 8 0 0 0 8 8h64v16h-110a2 2 0 0 1 -2-2zm128 2v-160h32v160z"/><path d="m256 208h192a8 8 0 0 0 8-8v-112a8 8 0 0 0 -8-8h-192a8 8 0 0 0 -8 8v112a8 8 0 0 0 8 8zm8-112h176v96h-176z"/><path d="m424 224a32 32 0 1 0 32 32 32.036 32.036 0 0 0 -32-32zm0 48a16 16 0 1 1 16-16 16.019 16.019 0 0 1 -16 16z"/><path d="m424 296a32 32 0 1 0 32 32 32.036 32.036 0 0 0 -32-32zm0 48a16 16 0 1 1 16-16 16.019 16.019 0 0 1 -16 16z"/><path d="m424 368a32 32 0 1 0 32 32 32.036 32.036 0 0 0 -32-32zm0 48a16 16 0 1 1 16-16 16.019 16.019 0 0 1 -16 16z"/><path d="m389.657 114.343a8 8 0 0 0 -11.314 0l-48 48a8 8 0 0 0 11.314 11.314l48-48a8 8 0 0 0 0-11.314z"/><circle cx="334" cy="126" r="14"/><circle cx="386" cy="162" r="14"/><circle cx="104" cy="368" r="8"/><circle cx="280" cy="366.028" r="8"/></g></svg>