<svg xmlns="http://www.w3.org/2000/svg" xmlns:xlink="http://www.w3.org/1999/xlink" width="23" height="26.719" viewBox="0 0 23 26.719">
  <defs>
    <clipPath id="clip-path">
      <rect id="Rectangle_10286" data-name="Rectangle 10286" width="19.921" height="15.756" fill="#373636"/>
    </clipPath>
  </defs>
  <g id="Group_47411" data-name="Group 47411" transform="translate(-1023 -667.11)">
    <g id="Group_47410" data-name="Group 47410">
      <g id="Group_47386" data-name="Group 47386" transform="translate(1023 667.11)">
        <g id="Group_47385" data-name="Group 47385" transform="translate(0)">
          <path id="Path_74091" data-name="Path 74091" d="M22.647,14.208c0-.281-.012-.549-.035-.83l2.2-1.721a1.254,1.254,0,0,0,.308-1.587L22.907,6.126a1.149,1.149,0,0,0-1.478-.513L18.886,6.725a8.91,8.91,0,0,0-1.384-.83l-.343-2.82A1.2,1.2,0,0,0,15.988,2H11.577a1.2,1.2,0,0,0-1.183,1.074l-.343,2.82a8.91,8.91,0,0,0-1.384.83L6.124,5.614a1.149,1.149,0,0,0-1.478.513L2.434,10.082a1.257,1.257,0,0,0,.308,1.587l2.2,1.721c-.024.269-.035.537-.035.818s.012.549.035.83c0,.043,17.758-.021,17.658,0A6.513,6.513,0,0,0,22.647,14.208Zm-12.952.83c0-2.356,2.443-3.351,4.1-3.3,1.715,0,4.179,1.229,4.179,3.3h0s-8.279.029-8.279,0Z" transform="translate(-2.277 -2)" fill="#373636"/>
        </g>
      </g>
      <path id="Path_74093" data-name="Path 74093" d="M138.332,0a4.727,4.727,0,0,1,4.863,4.512,4.88,4.88,0,0,1-9.741-.014A4.728,4.728,0,0,1,138.332,0" transform="translate(896.177 676.757)" fill="#e3e3e3"/>
      <g id="Mask_Group_1603" data-name="Mask Group 1603" transform="translate(1024.539 678.073)" clip-path="url(#clip-path)">
        <path id="Path_74094" data-name="Path 74094" d="M323.038,192.693a1.87,1.87,0,0,1-.424.858,1.48,1.48,0,0,1-1.01.523c-.937.029-1.875.009-2.769.009.011-.536.029-1.083.031-1.63,0-1.342,0-2.684,0-4.025a4.124,4.124,0,0,0-.213-1.465.567.567,0,0,1-.013-.111,8.862,8.862,0,0,1,2.456.162,2.674,2.674,0,0,1,1.9,2.148.426.426,0,0,0,.034.083Z" transform="translate(-303.117 -178.357)" fill="#373636"/>
        <path id="Path_74095" data-name="Path 74095" d="M113.951,165.04H110c-.478,0-.686-.194-.686-.64,0-1.759,0-3.518,0-5.277a2.7,2.7,0,0,1,2.257-2.661,3.081,3.081,0,0,1,.635-.062c1.16-.006,2.32-.009,3.48,0a2.809,2.809,0,0,1,2.82,2.1,2.729,2.729,0,0,1,.07.646q.008,2.639,0,5.277c0,.421-.215.621-.666.621h-3.967" transform="translate(-103.99 -149.286)" fill="#373636"/>
        <path id="Path_74097" data-name="Path 74097" d="M4.218,194.248c-.623,0-1.27.006-1.917,0a4.807,4.807,0,0,1-1-.061A1.594,1.594,0,0,1,0,192.579c0-.937,0-1.874,0-2.812A2.78,2.78,0,0,1,2.9,187c.5-.012.994,0,1.516,0a2.876,2.876,0,0,0-.114.386,7.6,7.6,0,0,0-.12,1.024c-.013,1.584-.008,3.168,0,4.752,0,.355.029.709.045,1.09" transform="translate(0 -178.494)" fill="#373636"/>
        <path id="Path_74098" data-name="Path 74098" d="M31.912,68.59a2.59,2.59,0,1,1-2.554-2.415,2.493,2.493,0,0,1,2.554,2.415" transform="translate(-25.441 -63.167)" fill="#373636"/>
        <path id="Path_74099" data-name="Path 74099" d="M281.231,68.576a2.59,2.59,0,1,1-2.591-2.4,2.511,2.511,0,0,1,2.591,2.4" transform="translate(-262.611 -63.167)" fill="#373636"/>
      </g>
      <path id="Path_74111" data-name="Path 74111" d="M282.5,69.164a3.224,3.224,0,1,1-3.224-2.99,3.126,3.126,0,0,1,3.224,2.99" transform="translate(755.221 612.124)" fill="#373636"/>
    </g>
  </g>
</svg>
