<svg xmlns="http://www.w3.org/2000/svg" viewBox="0 0 128.04 153.83"><defs><style>.cls-1{fill:#373636;}.cls-2{fill:#d13b27;fill-rule:evenodd;}</style></defs><title>Asset 1</title><g id="Layer_2" data-name="Layer 2"><g id="Layer_1-2" data-name="Layer 1"><path class="cls-1" d="M64,128a64,64,0,1,1,64-64A64.09,64.09,0,0,1,64,128Zm0-98a34,34,0,1,0,34,34A34.06,34.06,0,0,0,64,30Z"/><path class="cls-2" d="M64,35.37A28.93,28.93,0,1,0,93,64.3,28.93,28.93,0,0,0,64,35.37ZM53.07,82.58h-.85L50.94,79l-4.89,0V48.28H76.91v7.18l-23.84.07ZM76.91,79H59.67V72.57H68V66.18h-8.3V61.7H76.91Zm3.22-18.31h-4v-4h4Zm3.19,4.9h-3v-3h3Zm-.47-5.34V57.44h2.77v2.77Z"/><path class="cls-1" d="M35.73,86.59,0,64.3v71.42a18.11,18.11,0,0,0,18.1,18.11H35.73Z"/></g></g></svg>